<svg version="1.1" id="Layer_1" xmlns="http://www.w3.org/2000/svg" xmlns:xlink="http://www.w3.org/1999/xlink" x="0px" y="0px"
	 width="100%" viewBox="0 0 368 368" enable-background="new 0 0 368 368" xml:space="preserve">
<path fill="currentColor" opacity="1.000000" stroke="none"
	d="
M183.043396,285.850586
	C183.039627,271.705780 182.945297,258.040558 183.088791,244.377853
	C183.126389,240.798737 182.201920,238.209396 178.727112,236.865402
	C178.266510,236.687271 177.877426,236.328629 177.420517,236.135849
	C158.756729,228.260605 151.709641,213.503647 154.089600,194.296799
	C155.228073,185.109085 152.795227,176.129639 154.037292,167.205902
	C155.402374,157.398178 153.241302,147.712433 154.022141,138.061966
	C155.296799,122.307938 152.911407,106.631584 153.816574,90.919403
	C153.902756,89.423561 153.766495,87.907135 153.945847,86.425972
	C154.392227,82.739456 156.110733,79.731613 160.176895,80.054871
	C163.826920,80.345055 165.977707,83.183380 165.253510,86.782082
	C163.176559,97.102921 168.438812,102.518173 177.198929,105.937012
	C178.727310,106.533493 180.165405,107.361343 181.990128,108.250381
	C183.670395,105.086853 182.873337,101.844353 183.376358,98.853157
	C183.977005,95.281403 185.428192,92.630463 189.362549,92.941040
	C193.183853,93.242706 194.598969,96.087433 194.730988,99.617424
	C194.833786,102.366821 193.726730,105.245903 196.029678,108.500450
	C201.175507,105.484955 206.328354,102.556618 211.375183,99.455757
	C213.024033,98.442680 212.607178,96.492561 212.634476,94.852112
	C212.687134,91.686935 212.601440,88.516525 212.751343,85.356735
	C212.897934,82.266777 214.760178,80.278000 217.711090,80.000740
	C220.679550,79.721840 222.784058,81.417458 223.558105,84.378021
	C223.890930,85.651031 224.117920,87.011429 224.060425,88.317490
	C223.512726,100.760895 224.850586,113.204636 222.887833,125.705559
	C222.125748,130.559189 224.780823,136.109818 224.045242,141.398941
	C222.668396,151.298767 224.532104,161.193542 223.897537,171.000610
	C223.266525,180.752792 223.825928,190.388397 224.075119,200.083847
	C224.457962,214.978683 219.055283,226.900925 204.981552,233.419006
	C197.235794,237.006363 193.592316,241.463882 194.485870,250.921509
	C195.685806,263.622101 194.505707,276.542847 194.449585,289.369568
	C194.431839,293.423187 194.321732,297.371124 189.157562,298.008392
	C185.533005,298.455688 183.327988,295.128357 183.058182,289.329865
	C183.011765,288.332184 183.045120,287.330780 183.043396,285.850586
M196.991379,224.755325
	C209.214767,218.321609 214.175568,210.461426 211.894409,201.024948
	C209.560349,200.959091 208.089813,202.791931 206.196518,203.672440
	C198.816269,207.104752 195.669449,213.342651 194.813614,221.051605
	C194.643280,222.585922 193.768921,224.484146 196.991379,224.755325
M196.901352,195.558899
	C209.428009,188.837418 214.523071,180.728348 211.654678,171.806229
	C202.429886,175.176224 195.916199,180.801849 194.845062,191.196823
	C194.667892,192.916183 193.886993,194.861023 196.901352,195.558899
M182.925415,222.607422
	C182.610092,211.095840 177.513580,204.657135 165.980988,201.200638
	C164.008499,211.100494 171.890045,223.241669 181.273056,224.754303
	C182.400284,224.936020 182.669418,224.165039 182.925415,222.607422
M183.011032,192.078293
	C182.049408,181.408234 176.690384,175.031830 166.139328,172.003586
	C163.572876,181.952667 170.120529,191.536972 182.524780,195.642365
	C182.689514,194.681152 182.848282,193.754807 183.011032,192.078293
M212.410706,148.013809
	C212.614532,146.218002 212.944290,144.417404 212.259644,142.640854
	C199.606247,146.604660 191.562851,158.342148 196.103058,166.416779
	C204.661469,163.437271 210.669037,158.169601 212.410706,148.013809
M212.560440,115.193260
	C212.177826,113.299057 211.020126,113.195854 209.626068,114.036400
	C206.784180,115.749924 203.744507,117.247910 201.223221,119.356964
	C196.162735,123.590050 193.731125,132.055038 195.699219,137.134567
	C206.221817,134.173203 211.690903,127.313690 212.560440,115.193260
M166.610153,122.779053
	C168.943787,130.734436 174.856094,134.664505 182.251022,137.213776
	C184.998077,127.580200 178.704880,117.254829 165.792618,113.314827
	C164.706421,116.324615 165.787064,119.159760 166.610153,122.779053
M182.511429,158.305054
	C180.347214,149.665512 174.012848,145.481689 166.207565,142.605225
	C163.680984,152.881592 171.433533,164.191910 182.359085,165.884262
	C183.664291,163.684082 182.782837,161.379288 182.511429,158.305054
z"/>
<path fill="currentColor" opacity="1.000000" stroke="none"
	d="
M228.592041,116.930542
	C229.312286,113.239784 231.345184,111.512543 234.651230,111.835213
	C238.047974,112.166740 239.334854,114.617119 239.660019,117.729698
	C239.711914,118.226479 239.917404,118.751801 239.817688,119.213341
	C236.804565,133.161179 248.032303,135.537064 256.940338,140.434067
	C258.210907,137.264221 257.540741,134.263336 257.625946,131.374710
	C257.732605,127.757629 258.950653,125.066292 262.905396,124.816513
	C266.909241,124.563637 268.395599,127.316231 269.010773,130.731155
	C269.536041,133.646957 268.647369,136.697952 269.932556,140.180130
	C275.512299,137.735962 280.563538,134.666534 285.485016,131.380310
	C286.911102,130.428070 286.654785,128.725098 286.681549,127.237839
	C286.741455,123.907608 286.582794,120.559471 286.879578,117.251495
	C287.162994,114.092239 289.021545,111.887146 292.350861,111.827621
	C295.936493,111.763496 298.175110,114.081314 298.147125,117.425133
	C298.040070,130.221024 299.679932,143.112534 297.118225,155.775284
	C296.378723,159.430573 298.527344,162.118393 298.371399,165.440384
	C298.044434,172.406097 297.983582,179.353561 297.344513,186.336258
	C296.820129,192.066467 298.705505,198.032852 298.339996,203.990829
	C298.167145,206.808060 298.381104,209.630844 297.617676,212.422852
	C296.876221,215.134567 297.449432,217.802567 297.750580,220.604248
	C298.888397,231.189957 299.452240,241.870865 294.054626,251.808426
	C290.718506,257.950653 285.783905,262.445831 279.513794,264.969666
	C270.995544,268.398407 267.604736,274.069305 269.108856,283.076141
	C269.568054,285.825958 269.311554,288.743011 269.053192,291.553162
	C268.714081,295.241364 266.910126,298.231262 262.847900,297.949738
	C259.123749,297.691742 257.641785,294.827698 257.655365,291.199677
	C257.675385,285.868896 257.541962,280.535065 257.686768,275.208313
	C257.758484,272.570526 256.883057,270.776733 254.576691,269.495728
	C251.084579,267.556152 247.691559,265.439026 244.216766,263.467255
	C234.423355,257.910034 229.567581,249.280319 228.586731,238.290695
	C227.980164,231.494522 227.324097,224.679764 229.480179,217.986832
	C230.192032,215.777115 228.833267,213.761551 228.685257,211.615662
	C228.147263,203.815933 227.487885,196.091812 229.354568,188.272919
	C230.076584,185.248703 228.652405,181.746368 228.396622,178.447067
	C227.920181,172.301651 227.638870,166.171631 229.272644,160.091782
	C230.296829,156.280396 228.483871,152.578751 228.328339,148.771851
	C227.899979,138.286621 228.356339,127.820427 228.592041,116.930542
M240.127594,150.624222
	C241.529449,160.502304 247.018463,166.544281 256.862030,169.044403
	C259.431030,158.561417 251.615799,147.955200 240.040878,145.453171
	C240.040878,146.929337 240.040878,148.396576 240.127594,150.624222
M282.754425,248.171692
	C285.591370,243.474091 287.700256,238.636536 286.095306,232.843399
	C273.077362,237.743805 267.200958,246.646057 270.140015,256.972168
	C274.625977,254.775467 279.164581,252.832535 282.754425,248.171692
M282.851410,175.648285
	C271.539673,182.035507 266.883148,190.463089 270.419189,198.148712
	C282.244324,193.926620 287.854675,185.566177 286.210968,174.593658
	C285.095642,174.139435 284.385559,175.165405 282.851410,175.648285
M280.691650,163.202454
	C285.148254,158.001984 287.700195,152.265945 286.271027,145.049026
	C272.898041,150.334961 267.000702,159.297165 270.328674,169.487335
	C273.661652,167.516495 276.908142,165.596786 280.691650,163.202454
M271.073242,227.173996
	C283.257965,221.642014 288.899048,212.659775 285.613831,203.731689
	C281.567108,205.256836 277.783661,207.219879 274.676270,210.259033
	C269.908386,214.922150 268.145447,222.141449 271.073242,227.173996
M245.712631,176.850372
	C244.115219,176.117722 242.816330,174.511978 240.762894,175.095123
	C238.253693,185.720612 246.322937,196.827057 257.161163,197.742691
	C258.281860,189.169769 254.469864,181.936615 245.712631,176.850372
M255.853073,216.749573
	C253.258820,209.301819 247.022934,206.321274 240.273636,203.400696
	C239.470596,216.242523 246.073837,225.349426 257.084930,227.114075
	C258.470398,223.734451 256.821686,220.644119 255.853073,216.749573
M241.866241,233.200302
	C239.008636,233.315918 240.045044,235.534561 240.063416,236.905365
	C240.191605,246.472046 247.061600,254.323105 257.370087,256.614227
	C257.750977,254.633026 257.574036,252.723907 257.261871,250.744873
	C255.870865,241.926453 250.117966,236.887680 241.866241,233.200302
z"/>
<path fill="currentColor" opacity="1.000000" stroke="none"
	d="
M149.306961,151.721741
	C147.353836,158.949448 150.210068,165.646088 149.488998,172.446777
	C148.388626,182.824844 149.806335,193.273727 149.308563,203.663101
	C148.768661,214.931946 149.681076,226.171158 149.347702,237.418991
	C149.016998,248.576736 144.504395,258.175720 134.422943,262.771210
	C122.887512,268.029480 117.849892,275.453583 120.331505,287.863739
	C120.363548,288.023987 120.335754,288.196228 120.335159,288.362885
	C120.311287,295.000732 118.380280,298.236053 114.493996,298.149689
	C110.795181,298.067505 108.039192,294.459900 108.973099,288.036407
	C110.801163,275.462646 106.641045,267.498291 94.550117,262.589783
	C86.569603,259.349915 82.626236,251.508209 80.813202,243.300720
	C78.980583,235.004578 78.667496,226.509125 81.038773,218.163086
	C81.634293,216.067078 80.578941,214.256012 80.387932,212.301926
	C79.629128,204.539230 78.613785,196.761902 81.031082,189.112518
	C81.485962,187.673096 80.975777,186.514587 80.775436,185.231903
	C79.437668,176.666840 78.533745,168.110367 81.135818,159.594467
	C81.319328,158.993896 81.332207,158.265915 81.189201,157.651962
	C78.233360,144.961990 80.278336,132.087830 79.776787,119.309425
	C79.625595,115.457245 80.900764,112.234711 85.338448,111.819672
	C88.861313,111.490181 91.894684,114.723122 91.180275,119.410355
	C89.798477,128.476288 93.391655,133.863785 101.641594,136.945953
	C103.766594,137.739838 105.499779,139.519241 108.283340,139.852142
	C109.251167,137.315979 108.670891,134.654846 108.883949,132.095551
	C109.199196,128.308914 110.313843,124.862923 114.801582,124.865845
	C119.399818,124.868828 120.295685,128.289658 120.359207,132.169403
	C120.401535,134.754471 119.868851,137.422775 121.118790,140.707947
	C126.432945,137.648834 131.439606,134.817551 136.388855,131.889236
	C138.045593,130.908997 138.016281,129.115616 138.059723,127.429825
	C138.141190,124.267433 138.117905,121.096481 138.356064,117.945541
	C138.622925,114.414581 140.196533,111.728897 144.167374,111.814072
	C147.868912,111.893471 149.190826,114.449440 149.570557,117.804169
	C150.400269,125.134483 149.664490,132.441711 149.422104,139.759644
	C149.295288,143.588730 149.349716,147.423828 149.306961,151.721741
M121.289429,160.850464
	C120.658867,163.550232 119.591675,166.237076 120.927437,169.026657
	C132.967545,166.231644 140.169006,155.644379 137.014450,145.237976
	C129.805191,148.118484 123.751007,152.096085 121.289429,160.850464
M92.445099,203.827408
	C91.013474,204.446884 91.388344,205.746857 91.358650,206.848053
	C91.101631,216.380630 97.269272,223.915817 108.307434,227.512680
	C108.453880,227.063217 108.701424,226.620743 108.731812,226.163834
	C109.504341,214.547485 102.943031,208.068283 92.445099,203.827408
M103.352852,167.043701
	C104.980888,167.623718 106.218987,169.388931 108.264801,168.741089
	C109.961090,157.494980 103.420197,148.280655 91.789848,145.438461
	C90.451523,154.783234 93.995766,161.683640 103.352852,167.043701
M95.146645,175.632309
	C93.968086,175.340744 93.116501,173.769653 91.622032,174.682556
	C90.585220,186.679016 97.546745,196.299896 108.254128,197.722000
	C109.882416,188.024872 106.542854,182.217834 95.146645,175.632309
M124.182213,212.747482
	C121.580772,217.389587 119.474197,222.135727 120.751190,227.743347
	C134.796539,223.597031 140.516647,211.217377 136.662476,203.782532
	C132.275589,206.059845 127.567558,207.805222 124.182213,212.747482
M134.896225,233.758560
	C123.681793,239.885544 119.025749,247.585342 121.018166,256.708984
	C131.533813,253.930649 138.259125,245.845428 137.916626,236.306595
	C137.863480,234.826263 138.489395,232.524567 134.896225,233.758560
M127.846138,195.346237
	C135.977280,190.297104 139.345932,182.890350 137.063461,175.079788
	C125.412437,177.231323 118.319763,189.830276 121.381844,198.206528
	C123.640320,198.116257 125.274170,196.550858 127.846138,195.346237
M108.730118,253.156265
	C108.017830,242.718018 102.617615,236.289093 91.966362,233.199097
	C89.835670,243.662613 96.340355,253.155396 108.034798,256.634766
	C108.972954,255.904465 108.598404,254.834152 108.730118,253.156265
z"/>
</svg>
