<svg version="1.1" id="Layer_1" xmlns="http://www.w3.org/2000/svg" xmlns:xlink="http://www.w3.org/1999/xlink" x="0px" y="0px"
	 width="100%" viewBox="0 0 368 368" enable-background="new 0 0 368 368" xml:space="preserve">
<path fill="currentColor" opacity="1.000000" stroke="none"
	d="
M209.593750,106.216095
	C226.067169,104.420418 240.114532,108.997498 252.618576,119.090729
	C236.850937,138.206512 198.956192,139.765152 179.954834,119.684731
	C188.203476,111.853088 198.117645,107.915657 209.593750,106.216095
z"/>
<path fill="currentColor" opacity="1.000000" stroke="none"
	d="
M170.307938,174.842773
	C151.653610,165.090851 142.377029,149.573502 139.685913,129.369659
	C144.235291,127.765610 148.103699,129.101852 151.817154,130.288742
	C174.367706,137.496475 187.681686,152.812164 191.850204,176.162613
	C192.535629,180.002121 190.702209,180.618423 187.755814,180.216843
	C181.783417,179.402832 176.055038,177.707260 170.307938,174.842773
z"/>
<path fill="currentColor" opacity="1.000000" stroke="none"
	d="
M123.816872,129.592209
	C124.857277,129.341827 125.486610,129.101685 126.137962,128.990250
	C132.838593,127.843781 133.351608,128.358002 132.304871,135.106277
	C128.806305,157.661804 108.081688,177.646683 85.641716,180.191437
	C81.513123,180.659637 80.343224,179.262939 81.181480,175.115616
	C85.995888,151.296051 100.083855,136.214706 123.816872,129.592209
z"/>
<path fill="currentColor" opacity="1.000000" stroke="none"
	d="
M258.528778,179.475159
	C256.319519,174.418304 253.392624,170.190765 250.640610,166.116837
	C251.789780,164.227921 252.947098,165.133453 253.959076,165.411102
	C259.319946,166.881973 264.847351,167.453949 270.292297,166.895187
	C275.413025,166.369705 278.764496,168.232803 281.865356,172.031525
	C288.890076,180.637238 293.163208,190.410019 295.117676,201.259094
	C295.405243,202.855392 295.673462,204.560501 294.351440,206.574005
	C283.257019,206.310013 273.224823,202.472412 264.322968,195.651718
	C261.960785,193.841812 262.453186,190.447311 261.538269,187.813782
	C260.609924,185.141418 259.631073,182.486603 258.528778,179.475159
z"/>
<path fill="currentColor" opacity="1.000000" stroke="none"
	d="
M166.771820,263.636597
	C164.717606,266.420837 163.504028,269.486603 159.848557,271.067932
	C152.322220,262.539459 147.841965,252.632660 146.208618,241.383743
	C146.105164,240.671280 146.610138,239.773026 147.042160,239.095108
	C152.199570,231.001968 155.563873,222.224701 157.260712,212.787659
	C157.369720,212.181488 157.838364,211.639954 158.554825,210.280975
	C163.067184,217.675827 168.492508,223.601212 174.045685,229.481003
	C177.135941,232.753021 175.550522,237.802338 174.892075,241.962646
	C173.689407,249.561646 170.968170,256.708679 166.771820,263.636597
z"/>
<path fill="currentColor" opacity="1.000000" stroke="none"
	d="
M229.019028,229.024704
	C223.458740,225.604813 220.748184,221.337433 221.671188,214.783798
	C222.528458,208.697021 220.682129,202.681488 219.527466,196.821991
	C221.572830,195.809647 222.408539,197.214310 223.398514,197.865616
	C230.257004,202.377838 237.588684,205.837204 245.610565,207.625458
	C248.774048,208.330658 250.872711,209.910690 252.550613,212.672958
	C256.832672,219.722412 259.514099,227.300507 261.062286,235.366211
	C261.891907,239.688461 260.511963,241.055389 256.110229,240.414215
	C246.183640,238.968231 237.320541,235.174927 229.019028,229.024704
z"/>
<path fill="currentColor" opacity="1.000000" stroke="none"
	d="
M103.968452,259.844604
	C99.906853,251.859329 97.858612,243.695374 97.066856,235.187576
	C96.880753,233.187805 96.625069,230.990784 98.342934,229.581268
	C104.691177,224.372574 109.563156,217.915436 114.147285,210.433426
	C115.908508,213.195480 115.929176,215.657181 116.545456,217.947296
	C118.363579,224.703476 120.628647,231.333801 124.645470,237.128967
	C126.437042,239.713699 126.772240,242.271179 126.109718,245.127228
	C124.131294,253.656021 120.529907,261.422455 115.266144,268.443604
	C113.267937,271.108978 111.452972,271.486877 109.509949,268.562042
	C107.673225,265.797241 105.919327,262.977386 103.968452,259.844604
z"/>
<path fill="currentColor" opacity="1.000000" stroke="none"
	d="
M147.259918,284.025513
	C145.104965,289.542114 142.170013,294.159180 138.906158,298.600983
	C137.129333,301.019073 135.535324,300.926697 133.820526,298.604492
	C128.001602,290.724182 123.992561,282.055206 122.224396,272.377228
	C121.964020,270.952057 122.191185,269.723663 122.973740,268.591797
	C127.081207,262.650787 129.716446,256.021698 131.998962,248.869812
	C134.785049,249.444244 137.499741,250.126740 140.595917,248.736526
	C143.323578,256.152466 146.768646,262.942169 150.000748,269.805237
	C152.069901,274.198883 148.934921,279.124695 147.259918,284.025513
z"/>
<path fill="currentColor" opacity="1.000000" stroke="none"
	d="
M262.198395,216.814346
	C261.168671,214.697937 260.306854,212.914688 259.263763,210.756363
	C261.762665,209.394012 263.899628,207.720642 264.628601,204.275818
	C271.964813,207.911163 279.142334,210.817291 286.698792,212.646545
	C287.162750,212.758835 287.701385,213.004211 287.983215,213.362396
	C295.052948,222.346863 298.399872,232.644531 299.515564,244.742859
	C287.232849,244.158218 277.103821,240.329346 268.084717,233.441620
	C266.094971,231.922073 266.576050,229.156769 265.780792,227.011826
	C264.571442,223.750122 263.497650,220.438141 262.198395,216.814346
z"/>
<path fill="currentColor" opacity="1.000000" stroke="none"
	d="
M228.173767,166.906769
	C230.813721,166.946121 233.060059,167.344162 235.129135,166.905716
	C241.155884,165.628616 244.720688,168.387726 247.744797,173.250305
	C252.479782,180.863937 255.686829,188.964417 257.111115,197.796829
	C257.667908,201.249664 257.084564,203.095978 252.746201,202.530045
	C241.852051,201.108917 232.316071,196.781769 223.728119,190.118179
	C222.541565,189.197479 221.469498,188.214783 221.483994,186.454071
	C221.535889,180.149002 221.504318,173.843231 221.504318,167.791321
	C223.727921,166.142303 225.767807,166.985321 228.173767,166.906769
z"/>
<path fill="currentColor" opacity="1.000000" stroke="none"
	d="
M147.231384,224.972458
	C144.351318,231.175842 141.418900,236.892578 136.489471,241.949631
	C129.159241,234.520325 125.324638,225.834656 122.828156,216.438599
	C122.275528,214.358673 122.048584,212.191544 121.684418,210.062393
	C121.192284,207.185028 121.987938,205.036697 124.550972,203.247650
	C129.062759,200.098282 132.297302,195.553391 136.643356,190.934250
	C140.914017,196.421661 145.752655,200.882614 150.538620,205.399582
	C152.068146,206.843094 151.466949,209.237976 151.067139,211.164429
	C150.121811,215.719299 149.191711,220.292816 147.231384,224.972458
z"/>
<path fill="currentColor" opacity="1.000000" stroke="none"
	d="
M269.538849,141.484650
	C273.489197,145.863770 276.276123,150.556931 278.472107,155.636642
	C279.651306,158.364304 279.359131,159.868286 275.955505,160.428513
	C267.671112,161.792084 259.739258,160.362411 251.878998,157.998322
	C250.444870,157.566986 249.091827,156.836685 248.481216,155.288177
	C245.976120,148.935257 242.478363,143.123260 238.038010,137.326660
	C243.109970,134.482300 247.679214,131.893280 252.276978,129.355942
	C253.873306,128.474976 255.172882,129.527603 256.425171,130.279327
	C261.317108,133.215851 265.519867,136.978806 269.538849,141.484650
z"/>
<path fill="currentColor" opacity="1.000000" stroke="none"
	d="
M129.334610,159.314148
	C131.700211,155.128525 133.861664,151.242218 136.270920,146.910400
	C140.095703,152.075729 141.510513,156.903336 140.492416,162.985886
	C137.974426,178.029541 130.635757,190.000717 119.049774,199.592819
	C118.334000,200.185425 117.320526,200.418457 116.048492,201.000473
	C112.244011,194.140350 110.441963,187.050552 110.609741,179.422043
	C110.648849,177.643982 111.965599,176.831192 113.179611,175.981750
	C119.536041,171.534073 124.753044,165.985031 129.334610,159.314148
z"/>
<path fill="currentColor" opacity="1.000000" stroke="none"
	d="
M173.724854,183.285614
	C175.670792,183.932724 177.241440,184.783371 178.850616,184.863937
	C185.352036,185.189423 187.577652,189.139236 188.025940,194.936874
	C188.878876,205.967880 188.723236,216.800964 182.530365,227.358139
	C173.801605,221.501678 167.842056,213.966309 163.558533,204.967560
	C163.018631,203.833328 163.202240,202.639465 163.732208,201.578796
	C166.669037,195.701385 167.590012,189.241653 169.050613,183.034546
	C170.626083,181.749649 171.983795,182.780441 173.724854,183.285614
z"/>
<path fill="currentColor" opacity="1.000000" stroke="none"
	d="
M85.383484,192.778763
	C85.601913,188.217194 87.573059,186.023804 91.833153,185.560852
	C95.750237,185.135178 99.194321,182.550888 103.739670,182.565750
	C104.988541,189.263870 106.560272,195.841125 109.111267,202.135971
	C109.453285,202.979935 109.387115,204.158875 109.107315,205.057312
	C107.488358,210.255753 97.261505,224.310364 90.021622,226.687836
	C83.814789,216.202484 83.925232,204.802292 85.383484,192.778763
z"/>
<path fill="currentColor" opacity="1.000000" stroke="none"
	d="
M212.306610,158.964188
	C215.740448,168.598602 216.117081,178.029648 214.662399,187.634750
	C205.095963,187.085190 198.582367,181.051682 196.629898,172.697128
	C193.804398,160.606949 196.050201,147.655121 189.004303,135.294815
	C194.643677,136.550522 198.891037,137.208740 201.990738,140.953476
	C206.390808,146.269135 209.781799,152.134857 212.306610,158.964188
z"/>
<path fill="currentColor" opacity="1.000000" stroke="none"
	d="
M215.350800,217.797394
	C215.046219,225.437485 214.226028,225.939056 207.851944,222.727722
	C206.072479,221.831238 204.368454,220.786102 202.616837,219.833008
	C196.099228,216.286560 192.293915,211.474426 193.608154,203.407898
	C194.465118,198.147995 192.773026,192.886673 192.021576,187.752701
	C192.346298,187.388000 192.540573,186.960297 192.774826,186.937149
	C199.877701,186.235413 204.188126,192.423691 210.384308,194.170456
	C213.102081,194.936615 212.895996,198.593994 213.662308,201.066925
	C215.303284,206.362442 215.548645,211.832275 215.350800,217.797394
z"/>
<path fill="currentColor" opacity="1.000000" stroke="none"
	d="
M218.981216,158.108643
	C216.769348,152.136551 214.024521,146.850647 210.263016,140.837570
	C217.379288,140.887924 223.516708,139.979843 229.682526,139.310318
	C230.237900,139.250031 231.007523,139.665817 231.429489,140.101089
	C236.693817,145.531357 240.724594,151.673065 242.785187,159.529190
	C234.442062,161.688400 226.750076,161.888611 218.981216,158.108643
z"/>
<path fill="currentColor" opacity="1.000000" stroke="none"
	d="
M151.977814,198.045441
	C150.598602,196.815186 149.478333,195.826523 148.378067,194.816071
	C142.494385,189.412643 138.546432,183.617157 143.784912,175.484558
	C145.627441,172.624084 145.059723,168.689346 147.613968,165.660324
	C152.284454,169.633102 156.805603,173.465118 161.306915,177.320282
	C162.121429,178.017868 162.313248,179.018250 162.295975,180.038879
	C162.170959,187.424759 160.558563,194.394989 156.908279,200.702805
	C154.663498,200.597656 153.542511,199.281845 151.977814,198.045441
z"/>
<path fill="currentColor" opacity="1.000000" stroke="none"
	d="
M131.479065,115.554123
	C129.238144,104.310944 124.705780,94.687103 117.010406,86.647240
	C115.132233,84.684990 113.982712,82.456108 116.345695,80.126999
	C118.724098,77.782692 120.889381,78.998703 122.812691,80.943764
	C133.015900,91.262329 138.372650,103.872803 140.269058,118.091240
	C140.608704,120.637741 140.237976,122.809692 136.880325,122.839668
	C134.134460,122.864182 131.837921,122.409447 131.753235,118.952316
	C131.728867,117.957283 131.624252,116.964218 131.479065,115.554123
z"/>
<path fill="currentColor" opacity="1.000000" stroke="none"
	d="
M161.099945,114.871750
	C157.115417,112.364685 153.217819,110.326836 149.012619,109.439278
	C143.665176,108.310623 142.392273,104.766350 141.955750,99.411003
	C154.923309,100.940575 165.449738,106.412773 174.659454,114.751747
	C171.332748,121.291023 170.578583,121.482803 165.115036,117.584831
	C163.899155,116.717361 162.642197,115.907509 161.099945,114.871750
z"/>
<path fill="currentColor" opacity="1.000000" stroke="none"
	d="
M175.968613,137.012604
	C175.179047,136.369156 174.659851,135.955795 174.135178,135.549484
	C168.691193,131.333649 168.726166,130.276352 174.930435,125.373520
	C180.280563,130.883713 183.767258,137.356613 186.203186,145.736099
	C181.442108,143.426987 179.480545,139.567093 175.968613,137.012604
z"/>
</svg>
