<svg version="1.1" id="Layer_1" xmlns="http://www.w3.org/2000/svg" xmlns:xlink="http://www.w3.org/1999/xlink" x="0px" y="0px"
	 width="100%" viewBox="0 0 368 368" enable-background="new 0 0 368 368" xml:space="preserve">
<path fill="currentColor" opacity="1.000000" stroke="none"
	d="
M297.515991,185.792297
	C300.630127,193.277832 301.917297,201.195999 299.888641,208.151779
	C298.073608,214.375107 299.034912,220.437439 297.793152,226.468185
	C296.342834,233.511826 293.807587,239.826614 288.623962,244.937424
	C287.921692,245.629837 287.098297,246.403534 286.821869,247.292282
	C283.731171,257.228027 276.161499,264.469666 271.109955,273.239075
	C266.186737,281.785706 258.721161,289.011108 247.927200,288.033508
	C240.163177,287.330322 232.351273,285.942474 224.566025,284.820526
	C222.979904,284.591980 220.893280,284.130585 220.243790,282.607483
	C218.823090,279.275726 215.679779,278.703064 213.202423,278.990417
	C208.311829,279.557648 205.886826,276.698669 203.327148,273.631531
	C199.153305,268.630219 198.559067,262.523193 198.475723,256.219635
	C196.410645,256.651062 195.936798,258.186432 195.140442,259.342896
	C192.852493,262.665405 190.318481,265.834381 186.883163,267.939728
	C181.201187,271.421997 176.503433,275.537262 172.526459,281.146271
	C167.114151,288.779633 158.124451,290.749420 149.268097,292.280579
	C142.144287,293.512177 135.003784,292.064606 127.873878,292.731415
	C125.818489,292.923645 123.528786,292.277405 121.566818,291.476135
	C116.528534,289.418579 111.833633,286.599884 106.291710,285.716278
	C103.837891,285.325043 101.415482,283.518646 100.627693,281.150055
	C98.214424,273.894226 92.298187,267.980560 91.727051,260.210022
	C91.060196,251.137115 91.273087,241.978653 91.514877,232.868210
	C91.645332,227.952805 95.198944,223.920517 96.259315,219.303955
	C97.302856,214.760696 97.627007,210.115799 100.840843,206.016159
	C95.917107,203.963638 91.819336,200.318710 86.034950,201.210251
	C83.831482,201.549850 82.886192,200.103180 82.623024,197.889954
	C82.150436,193.915634 81.466805,189.984070 82.376053,185.978317
	C82.942680,183.482025 82.669991,181.042343 81.673439,178.646042
	C79.234810,172.782211 81.536079,165.933899 77.821548,160.245255
	C77.129272,159.185059 77.710121,157.309006 77.661057,155.810852
	C77.340126,146.012680 85.200264,139.566803 87.942337,130.852264
	C91.007599,121.110565 100.618462,118.371452 109.955940,116.874763
	C112.204460,116.514351 113.391983,115.397934 114.647377,113.705933
	C120.082573,106.380516 127.844994,103.825684 136.268417,106.982903
	C139.260620,108.104431 141.940277,108.347496 144.899704,107.564262
	C151.500565,105.817291 157.776260,106.528290 163.615616,110.203644
	C165.083542,111.127579 166.471405,111.743484 168.244293,110.778000
	C172.624313,108.392754 176.309296,110.282158 179.686707,113.010452
	C183.368362,115.984535 186.372375,119.672081 188.182007,123.987213
	C190.185226,128.763977 193.631317,131.777618 197.957123,134.158875
	C205.145447,138.115860 212.907974,140.660217 220.585724,143.405548
	C222.897537,144.232193 225.159973,143.601089 227.383286,142.697983
	C235.057480,139.580673 240.815765,134.209442 245.569321,127.574615
	C253.003632,117.198067 257.656525,105.369667 263.179596,93.997215
	C264.740143,90.783890 266.103851,87.426201 270.439575,87.461830
	C273.702576,87.488632 275.602753,89.541817 276.689331,92.385292
	C278.208740,96.361504 276.802399,99.591125 273.748688,102.173637
	C269.044373,106.152092 266.027161,111.196297 263.584442,116.785294
	C260.578766,123.662262 256.752045,130.140930 252.356522,136.223679
	C250.419510,138.904190 250.363541,140.588348 253.076248,142.841553
	C259.732178,148.370041 266.453430,153.859146 272.215027,160.381073
	C272.747894,160.984238 273.463470,161.577072 274.209442,161.818222
	C286.063782,165.650238 291.600800,175.644775 297.515991,185.792297
M254.720596,277.596527
	C252.826340,280.626770 248.608749,280.429840 246.077164,283.629761
	C254.569336,283.923981 259.986755,279.715668 265.327942,273.459991
	C261.366730,274.897369 258.665741,277.518005 254.901718,276.168823
	C252.164871,252.823654 255.650742,234.524536 264.437469,230.302765
	C260.948395,242.893021 257.621826,255.006454 260.150421,267.832031
	C267.754150,265.047668 276.389954,257.410309 279.188202,251.832886
	C273.040985,241.094940 273.626129,230.145828 274.851501,219.208984
	C275.864899,210.163651 278.462616,205.682098 283.255371,203.966690
	C278.898529,216.428421 279.370178,228.753876 281.588531,241.354813
	C284.455261,240.599747 285.724091,238.985977 286.872406,237.397339
	C292.753876,229.260651 293.885925,220.015442 292.985870,210.324677
	C292.824982,208.592285 292.282440,207.173981 290.726257,206.119064
	C287.035004,203.616882 283.432739,200.983383 279.804413,198.409958
	C279.646912,198.527084 279.462097,198.594406 279.400024,198.721603
	C278.817566,199.915314 278.270538,201.126358 277.686340,202.319183
	C272.198822,213.523499 262.735962,218.840683 250.784943,220.456833
	C249.127014,220.681030 247.172211,221.115494 246.830475,218.727005
	C244.950211,205.585266 243.836380,192.482407 251.366425,180.484451
	C252.897751,178.044556 254.902802,175.830215 259.178986,175.390335
	C250.810776,187.669052 249.940109,200.214874 252.954468,213.667160
	C261.193665,211.986374 267.441803,208.262451 272.250793,202.108032
	C275.175110,198.365555 276.924561,194.504868 274.651672,189.680878
	C273.688446,187.636597 273.192230,185.289581 276.238892,182.885651
	C278.558167,192.254272 285.688873,196.165146 293.278351,200.154922
	C295.010986,185.458282 283.716400,168.198654 272.281616,167.270279
	C272.764709,169.660248 276.140320,171.142075 274.370758,174.854691
	C265.342743,166.972748 255.124847,164.253479 243.707535,166.412552
	C248.428177,170.463852 255.025406,168.961319 260.464996,172.226608
	C257.088715,175.200394 253.446198,174.415359 250.149994,174.180725
	C240.625504,173.502747 232.062103,176.407867 223.953674,180.857193
	C219.559937,183.268173 215.882172,186.604614 215.017075,192.493378
	C228.537018,194.172989 236.875717,183.977646 247.539032,179.375565
	C243.448456,186.588593 237.700073,192.001160 230.502167,195.405991
	C221.123901,199.842194 217.736603,207.450607 217.295486,217.065582
	C216.965073,224.267929 218.360641,231.300705 219.601639,238.335129
	C219.953384,240.328842 220.307114,242.159088 218.611877,243.753998
	C217.758789,243.051880 217.136627,242.539810 215.795059,241.435654
	C217.166336,247.361710 218.312866,252.368927 219.486496,257.369751
	C220.246231,260.606964 221.678375,261.909790 225.507446,261.082214
	C234.986221,259.033600 243.506958,255.608521 249.473145,247.137878
	C251.131500,249.927582 250.134567,251.888824 249.111603,253.741501
	C247.035126,257.502228 243.556915,259.790985 240.197449,262.296539
	C234.590988,266.477966 230.397614,271.778778 228.395065,278.827240
	C232.136429,280.110382 235.202881,279.583130 238.340683,279.124725
	C243.894135,278.313324 249.238632,275.803528 254.720596,277.596527
M184.495056,230.332672
	C186.761108,234.186768 184.172501,236.995773 182.192673,239.684311
	C176.234009,247.776047 159.934402,253.319016 150.132568,250.918991
	C147.535828,250.283188 146.720978,249.114883 147.110855,246.331421
	C148.047195,239.646439 148.572144,232.903824 149.361038,225.231964
	C138.127411,230.734985 126.959816,228.772308 115.750938,227.466888
	C111.966339,227.026123 111.316757,225.208344 111.911461,222.138260
	C112.937134,216.843307 115.359756,212.150848 118.337425,207.366806
	C113.995499,209.970352 108.325974,206.454453 104.412552,210.541397
	C106.022675,210.714874 107.348167,208.954834 109.555855,210.728363
	C103.919136,217.086105 99.248703,224.031540 98.005638,233.252609
	C99.543449,232.181961 100.073219,230.652420 101.894119,230.849045
	C104.720253,237.505676 101.772774,245.062088 104.625923,252.051941
	C107.579163,243.202545 110.240517,234.548035 119.379356,230.194611
	C114.395569,240.810455 108.287956,251.029190 111.974113,264.377747
	C124.236107,255.492966 134.195618,246.116272 139.727768,232.581329
	C140.266846,232.926590 140.805939,233.271835 141.345016,233.617096
	C139.265717,245.189819 137.186432,256.762543 135.039520,268.711609
	C141.995468,269.191162 148.273407,269.152985 154.436111,267.497162
	C159.371887,266.170959 164.208862,264.103271 166.492981,259.335266
	C168.660980,254.809616 172.589050,252.009171 175.484009,248.242447
	C176.607727,246.780319 178.093582,245.311234 180.710205,245.610138
	C179.624222,250.065933 176.458511,253.016205 174.771057,256.729645
	C173.102798,260.400879 170.701752,263.830872 170.709030,268.171387
	C181.380417,267.803131 195.427719,253.236435 197.333817,242.324585
	C195.786743,241.545273 194.201645,243.871445 192.694458,242.396347
	C191.159317,236.323074 193.404495,227.858719 197.469482,224.856476
	C199.317917,226.992371 197.470718,229.861771 198.680984,232.519547
	C206.916016,224.353409 212.409119,215.646088 209.950439,203.477570
	C212.934052,203.932907 215.471725,203.955154 214.837311,200.150864
	C206.195511,197.087265 207.009079,197.975784 209.121399,188.833893
	C209.782272,185.973709 208.803619,183.948212 207.602753,181.822174
	C205.327209,177.793442 202.874512,173.864777 200.478302,169.866043
	C199.628952,171.161743 201.323181,173.334839 198.716248,174.240128
	C189.430984,161.655533 177.285095,167.199966 165.962296,168.728195
	C164.829529,170.620453 167.585480,171.387527 165.853226,173.032074
	C160.673874,174.543030 155.621490,168.834702 149.766235,172.319534
	C144.961182,175.179367 139.734375,177.260864 136.091354,181.615891
	C136.876678,183.332657 139.404526,182.040878 139.601349,184.675156
	C130.154404,188.447495 118.177711,188.764145 113.461281,201.313751
	C118.922394,202.007843 123.371796,199.867630 128.014435,199.143539
	C132.749954,198.404984 137.496078,196.429321 143.706940,199.153900
	C131.746811,203.353653 122.035675,208.581024 118.902504,221.306808
	C133.020660,223.242081 146.742096,226.072067 158.279785,213.986603
	C154.417175,222.382111 154.089478,230.735718 154.199463,239.177292
	C154.269501,244.553055 154.940872,245.276199 160.298721,244.580811
	C170.381927,243.272079 178.761108,239.142685 183.982315,229.998138
	C183.982315,229.998138 183.942123,230.016739 184.495056,230.332672
M188.735275,136.879761
	C185.989197,125.312767 177.938065,115.277534 171.236511,115.090530
	C169.878342,117.007248 173.501846,118.438690 171.670609,120.707283
	C167.006821,118.116631 163.166687,114.069221 157.937027,112.785172
	C152.605042,111.476006 147.282364,112.078682 142.394699,114.644852
	C137.530914,117.198502 134.638016,121.496384 132.270294,126.350235
	C134.278610,127.837975 135.962204,128.392700 137.782196,128.753571
	C147.978485,130.775238 158.297028,130.713028 168.621109,130.735397
	C170.975555,130.740494 173.640961,130.052078 175.481796,132.434723
	C174.627014,133.803925 173.291458,134.051926 171.978424,134.197815
	C166.029266,134.858780 160.085129,135.829239 154.118652,136.009705
	C144.619781,136.297058 135.108551,136.077225 126.470627,131.132980
	C123.281357,129.307495 122.109352,127.503426 125.071053,124.191628
	C128.546585,120.305283 131.509674,115.960655 134.765366,111.723236
	C128.443726,109.590858 122.719894,110.386002 119.737450,115.358284
	C116.629677,120.539490 112.385895,121.615906 107.150986,122.423607
	C100.326851,123.476509 94.748314,126.757896 91.628418,134.093765
	C98.004166,132.301514 103.705559,129.070236 110.226509,132.195023
	C104.437271,134.537720 98.315361,136.088074 93.355980,139.933380
	C88.156387,143.964920 84.054131,148.682587 84.328293,156.054306
	C96.115456,154.646927 114.754532,146.171997 122.689384,138.842865
	C126.615746,135.216232 129.277725,134.516937 132.303497,136.317291
	C124.649025,143.052383 121.930984,148.701721 122.279205,156.785629
	C122.374870,159.006699 122.617195,160.877304 125.475456,160.692566
	C132.631897,160.230072 139.811005,159.740509 146.196106,155.998047
	C150.033157,153.749054 152.927536,151.062439 152.936035,145.826843
	C152.942184,142.030777 154.562119,138.260605 159.943298,136.654770
	C157.368393,144.300217 157.132278,150.975403 161.175308,157.508194
	C168.955109,152.970367 175.160645,147.559921 178.368271,139.133636
	C181.433182,150.552795 173.171295,155.840210 166.342346,162.247665
	C172.795746,161.158005 178.850189,159.206329 185.231812,160.411346
	C187.609467,160.860306 187.740814,159.014893 187.871628,157.201752
	C188.217697,152.405396 185.853317,148.187729 184.848114,143.373322
	C188.293137,142.848190 189.488937,140.853531 188.735275,136.879761
M156.226135,164.404022
	C155.548050,161.884567 155.013779,159.306427 153.262604,156.710449
	C144.217148,165.632675 132.885849,166.838043 121.277969,167.490570
	C117.713188,167.690964 116.753799,166.205292 116.137314,163.152390
	C115.128197,158.155182 116.737518,153.392761 117.174820,148.193909
	C109.342094,154.069290 100.933517,158.024078 92.048485,160.874268
	C87.754295,162.251785 87.022957,164.831512 87.676933,168.716293
	C90.342110,168.234955 91.767204,165.077927 95.365623,166.774185
	C89.297401,173.489349 88.091164,181.475433 88.232407,189.990692
	C88.300690,194.107529 89.898018,195.048615 93.645821,194.930786
	C103.728691,194.613800 111.702385,189.256958 119.998932,184.445969
	C113.467529,185.525635 107.010963,184.997650 100.542053,184.353683
	C98.107323,184.111313 96.982033,183.274231 97.270432,180.570923
	C98.154564,172.283676 100.749275,164.662415 105.665733,157.911255
	C106.757019,156.412750 107.703766,154.395828 110.390808,154.788849
	C110.816940,156.638931 109.724586,158.019775 109.088310,159.470596
	C107.011078,164.207047 105.129654,169.011185 104.402306,174.159195
	C104.126923,176.108307 103.809875,178.532059 106.861961,178.573380
	C117.734955,178.720642 128.610001,178.759598 137.666672,171.220306
	C138.547012,170.487457 139.710144,169.164444 140.450821,169.340500
	C146.494934,170.777100 150.784363,166.272980 156.226135,164.404022
M127.817070,268.342621
	C129.393188,264.164490 130.813965,259.946259 131.303055,255.308838
	C126.103546,259.943878 122.992889,268.060516 120.216705,284.214813
	C135.033829,290.890778 146.270187,280.458313 159.700211,274.987610
	C157.238434,281.566925 151.752014,283.336609 148.017471,287.232880
	C160.861923,285.507629 167.885727,281.712708 169.777283,275.375519
	C165.458954,276.709442 162.179367,276.106628 162.008926,270.629700
	C150.132263,276.149719 138.352615,276.418427 125.803375,274.095459
	C126.595299,271.868805 127.090744,270.475800 127.817070,268.342621
M262.572754,159.829773
	C263.518280,161.571701 264.399445,163.493011 267.994507,160.693741
	C266.699463,160.006302 265.673065,159.681885 264.930878,159.032593
	C259.041534,153.880432 253.219070,148.651932 247.346451,143.480530
	C245.616135,141.956848 243.893478,140.297440 245.881073,138.043976
	C256.252319,126.285416 258.572845,109.292206 271.277985,99.069046
	C271.529083,98.866997 271.713928,98.561676 271.877197,98.274689
	C273.125458,96.080467 273.835632,93.449257 271.420563,92.061058
	C268.932281,90.630760 268.330048,93.626160 267.297943,95.124130
	C266.741241,95.932137 266.487610,96.944740 266.064697,97.849831
	C260.991760,108.706711 256.457581,119.832985 249.513611,129.731659
	C243.920425,137.704803 237.059799,143.989410 227.722916,147.307373
	C224.779068,148.353485 222.038651,148.442200 218.986298,147.471588
	C210.385406,144.736618 202.125977,141.177673 193.842697,137.562332
	C194.468658,138.428070 195.199554,139.096008 196.056198,139.491837
	C203.007599,142.703720 209.906738,146.001160 216.509171,149.910843
	C219.709839,151.806137 220.916473,153.899124 219.361160,157.686050
	C216.837372,163.831039 215.408890,170.406693 212.162094,176.286163
	C211.195923,178.035767 210.899826,179.723251 213.282364,181.092224
	C214.878723,179.351364 218.470108,178.574509 217.921265,175.889542
	C216.466995,168.775436 220.194489,162.922546 221.560928,156.505402
	C222.074890,154.091675 223.416977,152.662338 225.385986,151.614365
	C229.939575,149.190826 234.542053,146.859085 239.092590,144.429977
	C240.461319,143.699341 241.628036,144.044312 242.868057,144.674240
	C250.181976,148.389740 257.292755,152.370026 262.572754,159.829773
M250.018936,159.068832
	C251.891357,159.211975 253.780334,160.351288 255.704178,159.074753
	C253.214554,155.855103 245.315659,149.969345 242.167862,149.266937
	C238.365219,148.418427 235.923859,151.877151 232.587219,152.620316
	C231.953995,152.761368 231.370071,153.142609 230.776260,153.438797
	C224.805786,156.416794 220.668701,167.456268 223.206680,174.137695
	C227.371170,172.865829 231.550644,171.589371 235.822525,170.284698
	C234.628189,167.711990 232.407761,166.115738 232.251297,163.034073
	C237.347824,159.730972 243.253784,159.299469 250.018936,159.068832
M196.421707,144.547546
	C192.608749,143.062881 192.086517,146.152588 192.659286,148.143158
	C193.922745,152.534256 194.397903,156.911667 194.479279,161.419662
	C194.505020,162.846664 195.489136,163.828903 197.077789,164.113647
	C197.468384,163.895844 197.932281,163.710464 198.308960,163.414185
	C199.805771,162.236847 200.863922,159.848755 203.258194,160.918121
	C205.216248,161.792694 204.936935,164.003769 205.137695,165.780136
	C205.440186,168.456787 206.143875,170.916718 208.368164,173.302826
	C212.289795,167.913025 213.175323,161.746490 215.102646,156.024689
	C215.763885,154.061569 213.778305,153.505630 212.568542,152.860016
	C207.430267,150.117905 202.219406,147.511765 196.421707,144.547546
M211.397675,243.652374
	C210.752014,238.559143 214.564240,233.468979 211.509277,227.689713
	C209.830200,229.551056 207.392487,231.476578 208.130890,232.767929
	C210.530167,236.964005 207.754852,240.158798 206.798965,243.594498
	C205.074234,249.793518 204.777878,256.032898 205.399200,262.333282
	C205.644989,264.825684 206.065842,267.525818 208.869186,269.272461
	C211.797516,263.760651 214.830017,258.803986 212.170761,252.373352
	C211.204514,250.036758 211.595215,247.139038 211.397675,243.652374
M116.097084,277.544159
	C117.525459,273.888611 118.953835,270.233063 120.570816,266.094788
	C111.272560,272.825897 111.272560,272.825897 105.952164,268.929565
	C102.513924,273.666046 102.558517,277.342010 106.088783,280.190521
	C109.267944,282.755768 112.532379,282.078033 116.097084,277.544159
M97.624481,248.062805
	C97.528702,247.928024 97.459885,247.739731 97.329346,247.673935
	C97.206146,247.611847 96.905869,247.627274 96.874313,247.696091
	C94.029732,253.900620 95.774345,263.308899 100.434433,266.927460
	C103.329308,263.738434 103.834564,260.639557 101.124886,256.820740
	C99.458389,254.472092 98.842773,251.377777 97.624481,248.062805
M220.439163,268.259064
	C217.604218,268.772919 215.801254,267.447662 214.577896,264.793396
	C216.072922,268.087799 210.470673,272.886780 217.339050,274.800659
	C223.921860,276.634949 224.167282,271.005951 227.005966,267.899292
	C224.709396,267.043945 223.037125,268.427338 220.439163,268.259064
M105.655769,201.239395
	C106.656540,200.413254 107.697166,199.603882 106.954620,197.836136
	C104.691101,198.235748 102.572853,198.866791 100.452339,200.351410
	C102.188553,201.209488 103.534927,201.736740 105.655769,201.239395
z"/>
<path fill="currentColor" opacity="1.000000" stroke="none"
	d="
M183.999573,229.984467
	C178.724365,230.419388 173.412506,231.052460 167.869507,228.183517
	C170.271164,221.326935 172.076767,214.316727 173.287628,206.664505
	C164.726105,203.626144 156.198532,200.496841 147.597153,197.585587
	C142.361877,195.813629 141.587219,194.431335 143.714417,189.298340
	C146.222900,183.245331 153.927765,177.562088 160.769760,177.202530
	C157.899490,182.637756 151.437149,184.709778 149.479568,191.498993
	C163.962738,195.029068 176.889404,206.851608 193.494232,197.182892
	C192.408432,202.384003 188.361221,205.811295 182.123932,206.140350
	C178.007797,206.357498 177.146072,208.055618 177.094299,211.657654
	C177.039856,215.444946 176.357468,219.223206 175.897354,223.488770
	C183.484589,224.591110 189.046722,221.591736 193.967560,216.705399
	C198.976212,211.731857 198.800491,204.937759 200.154556,198.513641
	C208.730637,207.678604 200.288910,224.131210 184.240295,229.827118
	C183.942123,230.016739 183.982315,229.998138 183.999573,229.984467
z"/>
<path fill="currentColor" opacity="1.000000" stroke="none"
	d="
M175.156174,187.980164
	C184.159912,190.151947 192.606339,187.427719 201.388031,186.736053
	C196.391296,196.590591 170.650269,196.753876 159.665695,187.493011
	C162.493378,179.782318 177.175583,171.236435 186.579193,171.827805
	C194.847626,172.347778 200.683014,176.091553 202.124146,182.771027
	C190.094666,174.067001 179.591171,176.497528 169.567154,185.339539
	C171.122391,187.433105 173.026581,187.459671 175.156174,187.980164
z"/>
<path fill="currentColor" opacity="1.000000" stroke="none"
	d="
M242.110291,244.279587
	C237.594025,246.063705 233.406982,247.662125 229.259674,249.357681
	C226.869064,250.335052 225.433167,249.603867 224.769089,247.179596
	C221.108398,233.815598 219.401901,220.436554 225.166199,207.203766
	C227.404968,202.064285 230.843933,198.059708 237.368790,197.393616
	C223.834503,210.481415 227.150238,226.063278 229.716934,242.004288
	C241.874802,239.540787 251.668808,233.742508 260.284546,224.888977
	C260.637207,231.750305 254.706223,237.840576 242.110291,244.279587
z"/>
</svg>
