<svg version="1.1" id="Layer_1" xmlns="http://www.w3.org/2000/svg" xmlns:xlink="http://www.w3.org/1999/xlink" x="0px" y="0px"
	 width="100%" viewBox="0 0 624 496" enable-background="new 0 0 624 496" xml:space="preserve">
<path fill="currentColor" opacity="1.000000" stroke="none"
	d="
M481.401550,250.384888
	C476.303528,251.078690 475.815918,253.100433 478.058716,257.197327
	C482.452759,265.223846 483.835419,274.129669 484.385315,283.172729
	C484.598480,286.677521 483.601898,289.484589 479.957092,290.627411
	C477.098297,291.523773 477.185699,293.313385 477.905029,295.717133
	C481.907318,309.091400 480.422424,322.403412 477.208038,335.663055
	C476.530090,338.459686 475.641846,341.679535 472.573364,342.266846
	C468.055939,343.131500 467.936523,346.368256 467.471558,349.630707
	C466.056152,359.561676 462.340118,368.539032 456.430359,376.629242
	C453.747467,380.302063 450.823303,383.692413 446.374634,385.297852
	C444.692902,385.904755 443.654846,387.165283 442.767181,388.600281
	C441.803497,390.158203 440.931305,391.774872 439.924988,393.303925
	C433.289734,403.385345 427.306519,405.001892 416.799561,398.879425
	C406.712952,393.001923 396.589020,387.369995 385.562836,383.313812
	C377.277222,380.265839 370.234467,374.820435 365.674347,367.234406
	C362.176208,361.415009 357.450531,357.878113 351.459717,355.406860
	C348.433624,354.158569 345.519257,352.639587 342.659943,351.292725
	C340.733459,353.367767 342.078918,355.173889 342.172363,356.872894
	C343.374817,378.733948 335.259827,397.246124 321.693024,413.745392
	C318.749023,417.325714 316.025543,417.032562 313.078094,413.338806
	C312.042236,412.040680 311.218353,410.575684 310.242401,409.226868
	C309.373108,408.025482 308.608215,406.696899 306.985413,406.043488
	C304.818695,406.683167 304.505615,408.920502 303.540649,410.533722
	C298.110992,419.610870 291.862061,427.981628 283.234619,434.297821
	C276.897614,438.937134 273.655548,438.424622 269.390320,431.918579
	C267.164154,428.522827 264.779907,428.104340 261.455597,430.205444
	C255.929199,433.698517 250.031555,436.353424 243.534393,437.528015
	C242.219696,437.765686 240.955811,438.167114 239.611908,437.698181
	C235.771744,436.358276 232.441513,437.645386 229.219498,439.678925
	C227.674591,440.653961 226.076477,441.589233 224.400970,442.304840
	C218.484146,444.831787 215.148788,443.307068 213.560455,437.074463
	C212.652191,433.510376 212.001282,430.355713 207.187347,430.404053
	C204.797241,430.428070 203.679535,428.011230 202.871964,425.998291
	C201.196579,421.822388 199.795029,417.558594 199.583252,412.990723
	C199.416199,409.387238 198.149826,407.098053 193.842316,407.208954
	C189.196701,407.328552 186.594559,404.475616 185.565063,400.045349
	C182.723938,387.818909 182.894058,375.564819 185.800171,363.433716
	C186.856583,359.023895 185.975220,357.087982 181.372925,357.078857
	C180.228790,357.076569 179.079727,356.684265 177.942749,356.427734
	C171.918839,355.068634 170.357620,352.767395 173.255264,347.211975
	C180.859146,332.633606 185.348053,316.936798 190.534958,301.481567
	C192.074112,296.895447 194.950943,292.981842 197.258820,288.126068
	C189.751709,286.204712 183.253845,282.220764 175.519531,282.152588
	C167.425430,282.081238 160.562790,279.115204 155.425186,272.722534
	C153.509430,270.338776 150.874252,269.499084 148.178497,268.610718
	C142.795380,266.836731 138.900452,264.414764 139.128082,257.447876
	C139.327774,251.336273 137.871613,245.176682 141.173904,239.599915
	C140.842041,239.125565 140.707703,238.695145 140.466827,238.623642
	C130.866562,235.773773 130.360870,234.746323 134.273438,225.403015
	C138.884384,214.391983 145.265717,204.483521 153.143372,195.538010
	C154.855408,193.593872 156.312805,191.826706 155.214310,188.900375
	C154.320709,186.519897 155.895615,184.753586 157.691330,183.386566
	C167.251907,176.108612 175.969086,167.861618 184.819168,159.771774
	C189.141373,155.820862 194.704346,153.808258 199.469254,150.622574
	C193.467056,140.105988 194.633667,138.303848 206.834152,137.779327
	C220.179108,137.205566 233.095276,133.433899 246.354095,132.227585
	C258.175110,131.152084 269.948242,130.707886 281.290436,135.502228
	C287.790070,138.249649 293.233124,142.055588 296.769745,148.279953
	C297.432892,149.447067 298.039032,150.981674 299.392548,151.136276
	C307.188049,152.026749 314.398499,156.400391 322.819885,153.830231
	C343.549774,147.503632 363.912170,140.220245 383.921692,131.919250
	C384.837738,131.539215 385.783325,131.162445 386.360657,129.730972
	C385.198456,127.339142 382.752289,125.821701 380.704895,123.984871
	C366.614410,111.343575 353.436462,97.977760 345.515900,80.360893
	C343.868286,76.696304 342.398407,73.025162 342.605011,68.863419
	C342.756622,65.809624 344.156219,63.770092 347.009827,62.904011
	C349.755280,62.070747 352.286499,62.442337 354.141022,64.985039
	C357.674347,69.829491 361.149139,74.719963 364.800354,79.474503
	C376.211090,94.333458 389.287598,107.601471 403.573608,119.692886
	C420.782013,134.257812 441.059753,142.322479 462.675903,147.543488
	C464.293213,147.934143 465.906158,148.353439 467.498657,148.833939
	C471.183197,149.945618 473.982635,151.914703 473.192139,156.294754
	C472.411346,160.621109 468.884338,161.062073 465.448486,160.801132
	C454.488892,159.968735 443.590454,158.692505 432.941284,155.755737
	C423.592407,153.177567 414.601593,149.748138 405.987488,145.281509
	C400.735260,142.558121 399.461151,142.929886 397.044159,148.038147
	C390.553467,161.755890 388.437805,176.304321 389.352051,191.335220
	C389.605896,195.508560 397.153229,200.407990 403.332947,200.574127
	C405.125244,200.622330 407.025970,200.358765 408.719391,199.778381
	C422.748627,194.970169 435.265533,198.674438 447.098389,206.407883
	C454.927612,211.524719 461.869873,217.794846 469.247955,223.498566
	C476.238617,228.902802 483.294495,234.211349 491.322510,238.039108
	C493.680359,239.163315 495.926147,240.571533 495.692261,243.502853
	C495.433838,246.742035 492.683594,247.612030 490.036407,248.299957
	C487.297974,249.011612 484.539764,249.647156 481.401550,250.384888
M269.286652,285.631073
	C267.703857,299.445038 266.210815,313.274506 261.557739,326.389923
	C262.484985,326.816193 262.787170,327.084290 263.073547,327.068329
	C285.863403,325.797577 305.081146,317.165863 319.157684,298.837006
	C328.192627,287.072754 333.670227,273.845642 332.766266,258.574921
	C332.147675,248.125183 325.065430,239.152557 315.000336,236.222870
	C301.653381,232.337921 282.887939,242.062592 276.226288,256.252716
	C271.985443,265.286194 270.640442,275.001160 269.286652,285.631073
M338.727997,159.176346
	C353.554138,154.657883 368.187134,149.530884 382.895691,144.196991
	C383.561401,146.805008 382.464661,147.912857 381.600281,149.108093
	C370.659576,164.236221 360.580444,179.935471 350.972534,195.928421
	C344.113220,207.346146 337.607300,218.976685 330.987579,230.537384
	C329.761230,232.679077 328.349762,235.036316 332.369965,236.282944
	C333.061646,235.127792 333.661407,234.150558 334.237854,233.159760
	C342.864349,218.332382 351.284790,203.380356 360.165527,188.706894
	C370.280090,171.994766 381.903992,156.388779 395.622864,142.388565
	C402.184875,135.691986 402.030792,135.604675 410.684509,139.877060
	C425.395996,147.140121 441.160400,150.717911 457.911652,153.506226
	C457.047211,152.836533 456.823059,152.514221 456.565063,152.484375
	C445.476166,151.201340 435.516479,146.240494 425.083862,142.826340
	C424.299438,142.569626 423.375977,142.323547 422.848328,141.761566
	C418.272095,136.887619 412.813202,134.476562 406.052246,135.396133
	C405.837372,135.425354 405.559998,134.994904 405.131287,134.621613
	C407.912292,129.888351 404.445038,128.626740 400.995789,127.432648
	C399.634369,126.961342 397.156128,127.493591 397.073944,125.936630
	C396.651978,117.942772 386.314667,119.027336 384.843445,112.188042
	C377.849213,111.116646 375.875580,103.554558 369.923035,101.116791
	C373.555298,93.845367 366.709076,95.159409 363.355927,92.954208
	C368.017792,85.283485 360.020813,86.910591 358.238556,85.665779
	C355.916595,82.927383 358.754364,81.961250 357.593689,80.119301
	C356.454803,79.891853 355.128326,78.776352 353.766663,80.656303
	C355.473938,85.169731 358.170776,89.142708 360.982361,93.066063
	C369.697388,105.227158 380.998260,114.866333 391.865784,124.940552
	C395.880554,128.662247 395.656219,130.165436 390.957764,132.677521
	C369.146149,144.339432 346.419861,153.723877 322.471008,160.046967
	C318.864288,160.999222 315.270233,161.567429 311.722290,159.908676
	C301.334625,155.052124 291.268005,156.814255 281.402222,161.462296
	C270.292480,166.696396 261.899048,175.299805 253.906433,184.282059
	C249.008759,189.786102 243.823578,194.899994 237.821320,199.187607
	C236.823090,199.900681 235.347626,200.351120 235.276047,202.240753
	C236.048203,202.687943 236.847778,203.271866 237.736755,203.639938
	C239.426010,204.339325 241.129822,205.052917 242.891235,205.521133
	C260.859558,210.297455 277.900879,207.778030 293.949738,198.616074
	C303.430298,193.203857 311.698334,185.987305 315.145966,175.551147
	C317.826080,167.438309 322.505371,163.353622 330.313202,161.681488
	C332.909149,161.125549 335.424652,160.194138 338.727997,159.176346
M391.121002,204.397583
	C384.662262,200.372910 382.344788,194.567368 382.670837,187.020203
	C383.041565,178.438538 384.673553,170.094086 386.683044,160.851517
	C381.167603,167.072433 379.584259,173.355286 380.658112,180.542038
	C382.264221,191.291168 382.202301,201.214676 376.154419,211.567383
	C365.532959,229.749023 369.077271,248.570099 383.753387,262.578522
	C394.049255,272.406006 408.050598,276.781250 418.338989,286.474243
	C420.028839,285.015991 420.422302,283.792999 420.751221,282.481781
	C423.048431,273.324219 423.441284,264.046661 422.151978,254.741409
	C419.239075,233.718140 407.578644,217.965332 391.121002,204.397583
M364.403015,300.073303
	C360.987640,277.172241 351.302246,258.353027 340.869904,254.347321
	C340.996277,276.273407 336.819580,289.748016 323.751678,306.062561
	C319.714630,311.102570 319.862640,315.332123 322.681213,320.556976
	C329.432556,333.072052 340.744812,340.233978 352.731445,346.596313
	C356.016815,348.340149 359.202332,350.613220 364.029938,350.946838
	C362.497925,334.056366 365.386688,317.572510 364.403015,300.073303
M310.285187,319.131470
	C309.705750,319.714752 308.835449,320.196075 308.589935,320.896423
	C303.958344,334.109802 296.371948,345.546814 287.600830,356.308014
	C285.591858,358.772827 285.960999,361.532318 287.360657,364.274536
	C291.076935,371.555328 295.376984,378.454559 300.609711,384.744843
	C306.092377,391.335510 311.627228,397.882751 317.223267,404.549011
	C318.229156,403.775146 318.878662,403.476868 319.235352,402.971802
	C329.902802,387.867615 335.852722,371.275543 334.872284,352.569672
	C334.612976,347.622620 332.134888,343.703705 328.285187,340.749115
	C321.794708,335.767670 316.917786,329.623322 313.961914,321.965363
	C313.405090,320.522705 313.317383,318.473633 310.285187,319.131470
M235.976410,343.519012
	C236.412247,352.491486 236.849915,361.463898 237.283203,370.436493
	C237.525833,375.460724 238.291840,376.043182 243.033554,374.427704
	C258.959320,369.002014 272.741669,360.285278 283.781067,347.486938
	C288.830933,341.632446 293.128662,335.269257 296.921112,327.324799
	C294.552124,328.117706 293.318115,328.501434 292.104492,328.941467
	C281.370758,332.833344 270.186951,334.476746 258.884369,335.276642
	C253.261047,335.674622 251.631500,333.522461 252.803772,328.005585
	C253.320297,325.574768 254.203522,323.218628 254.970474,320.844818
	C258.971283,308.461700 260.557251,295.731812 260.189819,282.574127
	C243.928329,299.246552 236.951675,319.656158 235.976410,343.519012
M198.053131,279.559967
	C209.343933,282.273590 220.813721,282.447968 232.300644,281.683472
	C241.392288,281.078430 249.877136,278.280182 257.782593,273.692413
	C261.463684,271.556183 263.769897,268.529877 264.733673,264.407166
	C267.984070,250.502274 275.800568,240.041153 288.347839,233.151337
	C288.882233,232.857910 289.623322,232.628510 289.353943,231.383011
	C284.397888,230.273712 279.298859,229.694565 273.952484,230.071426
	C274.442078,232.602905 276.820404,233.962067 276.098633,236.699265
	C270.894958,236.355087 268.451202,228.240936 261.881989,231.398575
	C262.944702,234.402939 266.290710,235.728134 265.771759,239.374695
	C262.145142,239.166550 260.260681,236.470337 257.841766,234.628479
	C254.966507,232.439072 252.102798,232.493164 249.594131,235.018768
	C249.487946,237.451782 252.529434,238.753784 250.887054,241.613724
	C246.675583,241.047836 242.640427,233.557693 237.877899,240.670197
	C239.019714,243.620087 243.093842,244.955017 242.633270,249.297043
	C240.273315,249.188828 238.519196,248.023788 236.806595,246.777283
	C231.360168,242.813217 228.727188,243.469437 225.002899,249.824326
	C226.522751,252.731033 230.727493,254.349243 229.896881,258.788361
	C227.076691,258.468750 225.519745,256.641357 223.725189,255.217346
	C222.448502,254.204254 221.283356,252.670303 219.376404,253.689438
	C217.018402,254.949631 218.207489,256.751495 218.809052,258.446930
	C219.127869,259.345520 218.788040,260.057312 217.878143,260.654633
	C215.935333,261.418060 214.127609,258.054169 212.004807,260.155273
	C205.787735,266.308777 199.078491,271.897247 191.785767,276.844452
	C193.600800,278.982910 195.652695,278.656952 198.053131,279.559967
M182.556229,346.821564
	C182.725601,350.199646 185.395340,349.580048 187.376999,349.637665
	C199.690674,349.995453 210.982697,346.516785 221.741653,340.675964
	C225.814346,338.464996 227.939438,335.489502 228.536789,330.993408
	C230.461533,316.506256 236.218307,303.511200 244.201935,291.399750
	C244.753708,290.562714 246.082764,289.842072 245.012619,288.079407
	C232.660339,290.802124 220.084030,290.903992 207.458038,289.342957
	C205.398987,289.088348 203.404251,289.385376 202.829590,292.134186
	C204.611176,295.052032 209.461014,294.525208 210.504990,298.605438
	C208.108414,299.312164 206.081970,298.299744 204.040436,297.871582
	C201.984726,297.440460 199.872467,296.783295 198.983032,299.348969
	C198.126617,301.819366 200.504593,302.294098 201.991379,303.174713
	C204.575241,304.705109 207.877289,305.376282 209.090118,308.840332
	C206.691666,309.983032 204.882324,309.069672 203.007294,308.451294
	C201.003479,307.790466 199.338974,306.135223 197.068893,306.296814
	C194.376770,312.122375 194.566498,312.674225 200.195374,315.452820
	C201.978790,316.333191 203.867188,317.100159 204.088196,319.701599
	C201.920609,321.024628 199.948196,319.849487 197.948242,319.299072
	C196.095276,318.789185 193.976395,317.426727 192.801926,320.161316
	C191.732819,322.650604 190.827271,325.233459 194.136276,327.051849
	C195.713730,327.918701 197.329056,329.018036 196.774338,331.228210
	C196.133179,332.070404 195.234116,332.385132 194.493088,332.057434
	C189.718231,329.946075 188.259750,332.885864 187.181519,336.646423
	C186.212418,340.026306 184.694962,343.176147 182.556229,346.821564
M290.038391,151.859406
	C294.339539,150.525391 291.561737,148.845886 290.137787,147.524643
	C282.225342,140.182892 272.334290,137.479034 262.056946,137.609543
	C243.236084,137.848572 224.994400,142.845413 205.174683,145.475601
	C209.395050,148.913345 212.599564,151.708572 215.992172,154.252991
	C226.966736,162.483734 238.794739,168.610153 252.927475,169.055832
	C256.605652,169.171814 259.685547,168.337051 262.532715,165.827148
	C270.281403,158.996277 279.189423,154.280045 290.038391,151.859406
M205.142441,212.544464
	C202.436798,216.457550 199.731155,220.370621 196.785873,224.630280
	C202.183014,226.820282 207.418777,227.724594 212.669571,228.253967
	C227.937042,229.793259 242.956375,229.283661 257.008850,221.991043
	C259.810303,220.537201 262.157562,218.659668 264.943542,215.275711
	C261.188477,215.275711 258.549530,215.398865 255.925598,215.252716
	C247.884171,214.804855 240.061523,213.407822 232.839844,209.574341
	C222.509567,204.090714 222.348831,200.647324 231.889725,194.213959
	C238.887482,189.495407 245.286819,184.087540 250.335114,176.784836
	C248.932281,176.159424 248.209152,175.721390 247.424850,175.504776
	C236.340393,172.443741 228.460464,177.796906 221.599869,185.531342
	C214.665466,193.348969 210.661102,202.988510 205.142441,212.544464
M190.695251,194.761154
	C192.692398,194.754333 194.690002,194.772766 196.686600,194.736038
	C203.244324,194.615448 208.875092,193.325867 212.598785,186.774124
	C215.839874,181.071564 221.462784,177.403778 227.112228,174.082901
	C228.177017,173.457001 229.742188,173.282684 229.781403,171.012283
	C221.547882,167.394821 214.074966,162.203995 206.965317,156.414047
	C204.366913,154.297958 201.281570,154.781494 198.538345,156.531631
	C185.522964,164.835312 176.760681,177.797256 163.700745,187.059204
	C172.429779,192.288177 180.925552,194.088699 190.695251,194.761154
M412.933960,205.184631
	C410.648468,205.365463 408.304749,205.324799 406.157806,206.961853
	C406.492554,207.567062 406.704590,208.201889 407.115845,208.656570
	C414.316132,216.617615 420.448151,225.218079 424.442841,235.314056
	C426.223999,239.815628 430.258057,241.889359 435.008026,242.728989
	C444.890869,244.475952 454.833221,245.340485 464.842682,244.631607
	C469.880737,244.274811 475.004333,243.943909 480.595032,241.647491
	C467.743500,233.186371 456.718597,223.544601 445.015503,214.777924
	C435.767548,207.850357 425.617645,203.852539 412.933960,205.184631
M287.537598,214.462402
	C286.074097,224.652878 288.420776,227.491898 298.655029,227.857590
	C299.813019,227.898987 301.024078,227.969742 302.130005,227.698502
	C307.519653,226.376709 312.662231,227.219604 317.734375,229.169998
	C320.261749,230.141861 322.924377,230.237015 324.410370,227.671890
	C327.312805,222.661682 331.448883,217.669678 332.217712,212.263885
	C333.854034,200.758789 328.471008,190.941559 321.273956,181.081589
	C314.747620,193.955353 305.166626,202.290756 293.010193,207.858536
	C290.542145,208.988922 288.850952,211.134247 287.537598,214.462402
M457.739990,290.050201
	C451.569275,288.785828 445.583649,286.911255 439.295227,284.012238
	C439.479980,292.333557 440.811493,300.161926 439.026093,307.808197
	C438.247467,311.142700 439.112579,313.518097 441.084320,316.027527
	C447.433411,324.108093 455.673187,329.510376 464.989899,333.524445
	C468.245453,334.927094 469.897003,334.038544 470.733002,330.625793
	C472.855103,321.962769 473.670013,313.180817 472.343689,304.388794
	C470.470764,291.973389 469.756256,291.483948 457.739990,290.050201
M472.776062,263.757050
	C471.658997,261.531128 470.570007,259.290588 469.417786,257.083008
	C467.981934,254.331924 465.813324,252.921906 462.571960,253.073257
	C452.707916,253.533890 442.963409,252.473724 433.393433,250.128708
	C430.022705,249.302765 429.195770,250.604233 429.265900,253.569489
	C429.407166,259.542206 431.693329,264.836243 434.055786,270.191193
	C436.468567,275.660126 440.387970,278.962769 446.108032,280.398163
	C454.522095,282.509613 462.993591,283.895233 471.725372,283.847870
	C476.195496,283.823608 477.311340,281.847229 476.539734,277.969238
	C475.631927,273.406738 474.861786,268.806000 472.776062,263.757050
M200.088531,356.739380
	C197.276764,357.597076 193.248199,356.267975 192.323914,360.612610
	C189.880402,372.098358 189.324539,383.622681 192.135269,395.149536
	C192.781876,397.801300 194.434616,399.374451 197.188065,398.702301
	C204.827301,396.837402 210.983261,392.293243 216.791122,387.254486
	C220.248337,384.255035 218.384354,380.063354 218.948898,376.415588
	C219.101257,375.431213 219.234833,374.439941 219.300446,373.446747
	C219.858505,364.999634 222.192810,356.929321 225.301865,348.235382
	C216.861755,352.131775 209.184967,355.263519 200.088531,356.739380
M268.460632,411.041260
	C270.473053,415.420776 272.551849,419.771362 274.477234,424.188812
	C276.069214,427.841339 277.966156,428.004974 280.813477,425.357239
	C288.079132,418.600861 293.959808,410.857697 298.498535,402.030792
	C300.190979,398.739380 299.761505,396.284210 297.282532,393.517883
	C292.846649,388.567810 288.871735,383.225647 285.377319,377.536560
	C284.207123,375.631409 283.477112,373.288574 280.702606,371.944916
	C277.002502,380.424194 271.933472,387.954071 266.249146,395.100739
	C264.569580,397.212341 264.815765,399.874878 265.462158,402.311127
	C266.183746,405.030579 267.254242,407.657501 268.460632,411.041260
M172.331451,218.824066
	C169.386658,223.669540 166.649078,228.627472 164.462021,233.865067
	C162.193283,239.298264 162.982346,240.901962 168.700150,241.463150
	C179.804321,242.552963 190.643936,241.269775 201.035553,237.024521
	C202.132690,236.576309 203.750443,236.516174 203.747772,234.372665
	C200.591507,233.485245 197.401398,232.608124 194.222900,231.690842
	C185.433823,229.154434 184.668076,226.223755 190.871490,219.388748
	C195.547867,214.236282 199.613449,208.668747 202.396469,202.065384
	C191.846512,200.499695 183.149963,202.366196 177.350357,211.700424
	C175.947189,213.958786 174.258072,216.039490 172.331451,218.824066
M415.743896,339.754761
	C421.207855,344.451904 427.233276,348.268066 433.756866,351.321442
	C435.524414,352.148743 437.009674,352.648346 438.626801,350.818329
	C446.804932,341.563599 445.995544,328.277832 436.652710,320.086975
	C431.722382,326.151398 431.356995,326.160858 423.539215,323.834778
	C414.357239,321.102753 406.478790,316.077362 398.305847,309.191895
	C401.122803,321.835388 406.603668,331.441620 415.743896,339.754761
M335.280396,166.946228
	C333.196991,167.518616 331.098846,168.042526 329.032990,168.672470
	C322.869415,170.551910 321.695496,174.688202 326.200409,179.361420
	C330.537415,183.860474 333.771484,188.988022 336.301392,194.665649
	C337.194336,196.669525 337.386902,199.154312 339.780548,200.806870
	C349.950928,184.744186 360.829041,169.374542 371.731140,153.903107
	C359.593475,157.879654 348.106598,163.101456 335.280396,166.946228
M372.697052,314.954803
	C372.388733,317.305511 372.026245,319.687836 374.647827,321.089966
	C376.399048,322.026611 377.533783,321.026489 378.368835,319.669861
	C385.130157,308.685272 390.725769,297.273407 391.955505,284.140137
	C392.383270,279.571564 390.781067,276.595734 386.740967,274.411377
	C379.425934,270.456360 373.681030,264.748993 369.318115,257.653412
	C368.641663,256.553284 368.100189,255.230331 366.380310,254.995819
	C365.918884,255.276627 365.226349,255.504791 364.820862,255.978622
	C363.172150,257.905121 358.947449,257.931213 360.126343,261.937042
	C361.628540,267.041656 364.924805,269.337830 369.623322,269.136169
	C371.243317,269.066620 373.295990,268.230927 374.449982,270.550995
	C373.665863,271.818329 372.396790,272.290070 371.147430,272.660217
	C368.789276,273.358795 366.727325,273.843567 367.867676,277.316864
	C368.901794,280.466705 370.657715,281.113586 373.521423,280.356750
	C375.966980,279.710449 378.314972,279.677948 380.420929,281.596313
	C379.040924,283.887360 376.907288,283.945526 375.030273,284.134979
	C372.093475,284.431366 370.935760,285.820068 371.157410,288.720398
	C371.373779,291.551727 372.628784,292.979706 375.587555,292.819977
	C377.833984,292.698700 380.143066,292.614288 381.788757,294.625183
	C380.687714,296.925812 378.830841,297.077667 377.007721,297.106964
	C374.819733,297.142120 373.003326,297.600281 372.538300,300.101593
	C372.091949,302.502197 372.779999,304.363037 375.156006,305.397949
	C376.077026,305.799103 377.000916,306.245941 377.013702,307.802338
	C375.190948,309.452332 372.293701,310.748199 372.697052,314.954803
M426.963287,287.249023
	C426.681580,288.207031 426.431030,289.175476 426.113159,290.121338
	C423.811096,296.972015 421.078400,297.783051 415.171539,293.369232
	C411.302399,290.478027 407.514954,287.469788 403.545349,284.724518
	C401.910706,283.594086 400.475342,281.506744 397.607086,282.506256
	C396.951233,287.378021 396.299622,292.305420 395.617981,297.228699
	C395.412872,298.710510 396.001892,299.853149 397.076660,300.748657
	C405.460175,307.733673 414.456177,313.629272 425.067810,316.751312
	C427.751160,317.540771 429.175232,316.681854 429.966492,314.147278
	C431.462250,309.355957 432.437744,304.457886 432.640259,299.455109
	C432.992188,290.761047 431.664856,284.730682 428.664795,280.596191
	C428.146790,282.643951 427.659576,284.569977 426.963287,287.249023
M428.469360,368.017761
	C430.789246,359.092468 430.771484,359.121674 423.117004,354.469452
	C420.846008,353.089172 418.719727,351.472717 416.501556,350.003052
	C413.941071,348.306580 412.288849,345.306885 408.664673,344.386810
	C405.548157,350.010529 402.650330,355.641174 397.594849,359.686462
	C395.831421,361.097504 396.866699,362.737366 397.952118,364.065643
	C403.607849,370.986786 410.448944,376.444885 418.347107,380.632355
	C420.979584,382.027985 422.724976,381.333099 424.160431,378.936066
	C426.062317,375.760132 427.159790,372.274933 428.469360,368.017761
M226.923340,387.721954
	C227.966324,393.436188 228.965271,399.158936 230.069778,404.861267
	C230.674866,407.985168 232.409149,408.993774 235.497025,407.643280
	C252.968185,400.002075 264.676697,386.869202 272.940002,368.463348
	C262.027618,376.196625 251.677063,381.989929 239.541901,383.808716
	C232.414291,384.876953 229.242920,382.438812 228.750351,375.180206
	C228.498047,371.462067 229.090866,367.644043 227.343903,363.466003
	C225.507217,371.626648 226.110687,379.238556 226.923340,387.721954
M376.497345,338.106354
	C374.291931,338.351685 371.816681,338.491333 372.271118,341.654449
	C372.760437,345.060303 375.277161,344.372620 377.680420,344.089233
	C381.176208,343.677063 384.776367,342.940247 388.353973,345.188873
	C385.720032,347.855743 381.770508,346.648468 379.201965,348.937256
	C389.803955,356.711517 393.010803,356.062012 399.207245,345.134766
	C400.191132,343.399719 401.054932,341.596161 401.961334,339.817688
	C402.672180,338.422974 403.090271,336.869568 402.233490,335.511932
	C397.011749,327.237488 394.383636,318.107300 393.572327,306.994568
	C389.771820,313.816681 386.818573,319.329102 383.653351,324.717072
	C381.879242,327.737000 379.356812,330.002930 375.485382,329.097595
	C373.211975,328.565918 371.748535,329.003510 371.664307,331.420471
	C371.562408,334.343384 373.451874,334.285156 375.752930,334.022217
	C378.834869,333.670105 382.088043,332.697144 385.242828,334.673828
	C383.009033,337.518463 379.915833,337.149658 376.497345,338.106354
M142.377625,224.674408
	C141.786758,226.354172 140.589005,227.903503 141.490570,230.663651
	C146.645355,230.132828 151.994232,229.650162 157.316757,228.963501
	C158.155334,228.855301 159.169876,227.985855 159.604446,227.194550
	C164.902557,217.547180 171.533859,208.971054 180.541306,201.641190
	C174.626892,199.527298 169.268875,197.923904 164.195251,195.678055
	C161.307617,194.399826 159.734390,194.791306 157.991592,197.288071
	C152.087433,205.746552 146.823959,214.553635 142.377625,224.674408
M351.726318,236.474411
	C348.094421,239.498810 341.787872,237.641724 339.089325,243.196762
	C343.471893,243.487076 347.405548,240.614258 351.553589,242.826401
	C350.469391,246.093674 346.635376,244.855759 345.185638,247.306381
	C348.057648,249.981491 352.095001,247.597839 355.164459,249.636902
	C354.512573,251.456314 351.961731,253.076416 354.612183,254.817673
	C357.015656,256.396637 358.361786,254.248566 359.555969,252.846710
	C362.851410,248.978104 365.370544,244.877335 364.136902,239.275253
	C363.584167,236.765305 364.175964,233.993744 364.310242,231.344025
	C364.612091,225.386642 366.685822,219.755386 368.028809,213.544052
	C360.089905,215.404770 353.971832,219.171982 348.556274,224.750732
	C351.010071,226.059738 353.727570,223.642899 355.438293,226.453110
	C352.232178,230.285568 345.092957,228.294891 343.026947,235.011841
	C345.717010,234.664795 347.808167,234.303757 349.914154,234.159241
	C351.085327,234.078857 352.867554,233.617218 351.726318,236.474411
M213.593994,239.083679
	C210.499985,240.704666 207.566452,242.886551 204.277863,243.827438
	C197.848297,245.666977 193.158066,248.966202 189.962494,255.063980
	C188.254898,258.322388 184.873734,260.706635 182.234985,263.473083
	C180.562866,265.226135 177.847702,265.941925 176.944077,268.864532
	C179.631668,271.135986 182.670532,271.206268 185.803696,270.295471
	C188.062653,269.638763 189.953598,268.244781 191.826523,266.824554
	C201.676895,259.355133 209.755722,249.930527 219.230637,242.043396
	C221.145920,240.449081 223.647476,239.350250 225.049393,236.784729
	C220.783722,235.663284 217.327271,236.242615 213.593994,239.083679
M458.676208,338.930573
	C452.446960,335.178772 452.569641,335.215820 450.554535,341.887695
	C448.497711,348.697540 446.767700,355.996643 440.878693,360.523315
	C436.926727,363.561096 436.744202,365.935760 439.488495,369.467346
	C440.501007,370.770294 441.332886,372.225800 442.147095,373.668213
	C444.152344,377.220703 446.214264,376.912903 448.574799,373.974518
	C454.519745,366.574249 458.482056,358.272308 459.656525,348.833069
	C460.041626,345.738098 462.196045,342.396851 458.676208,338.930573
M187.844101,249.044403
	C179.404297,248.720108 170.749054,250.692001 162.571091,247.900177
	C156.157883,245.710800 155.699203,244.787354 150.414017,253.068192
	C149.966003,253.770142 149.602112,254.530960 149.109909,255.198654
	C146.421722,258.845459 147.886810,260.641479 151.692032,262.093109
	C164.668243,267.043274 178.215912,262.464691 187.844101,249.044403
M249.102509,427.634705
	C253.126831,425.985138 256.725311,423.585022 260.358673,421.246704
	C261.996124,420.192902 263.232819,418.881622 262.716187,416.745758
	C261.633240,412.268860 260.484344,407.807892 259.080353,402.216705
	C253.803467,408.375610 244.604034,409.571106 244.142288,419.374908
	C243.981949,422.778961 240.708176,425.668457 241.421082,429.707489
	C244.105560,429.664612 246.221237,428.669312 249.102509,427.634705
M398.470978,374.161407
	C395.876007,370.532867 394.811920,365.323883 391.003662,363.201080
	C385.272064,360.006073 379.440643,356.999695 373.961060,352.528625
	C372.619598,356.921173 373.113159,360.041382 376.356781,362.252045
	C375.416565,364.148834 372.992950,363.335663 372.214691,365.291412
	C376.038574,369.950348 383.024017,365.488983 386.907013,369.859467
	C386.061096,372.091980 383.456909,371.268738 382.501862,373.057404
	C385.844696,375.650269 389.619690,376.958710 393.237793,378.580139
	C397.131836,380.325256 398.928619,379.115082 398.470978,374.161407
M372.368958,206.021912
	C374.087372,203.982819 375.877258,201.942017 375.715088,199.041336
	C375.359741,192.684982 374.929291,186.332809 374.462158,178.908859
	C368.140137,189.454361 362.361694,199.093140 356.583221,208.731903
	C362.109375,208.003082 367.248932,208.900269 372.368958,206.021912
M222.331650,406.702271
	C221.441422,403.416534 221.429260,399.885742 219.827225,396.696259
	C216.747757,397.502167 214.612427,399.433197 212.339844,401.013672
	C205.887695,405.500824 204.416138,412.672852 208.308365,419.435211
	C209.102158,420.814362 210.284790,422.523682 211.673248,421.116791
	C215.756775,416.978821 221.153763,413.788147 222.331650,406.702271
M437.607483,382.012512
	C438.181122,379.190643 437.314484,376.907745 435.105927,374.706299
	C432.919678,378.669128 431.136902,382.397522 428.902130,385.831818
	C425.750397,390.675293 423.094727,391.362244 417.939514,388.685455
	C413.888702,386.582092 410.055908,384.058899 406.214752,381.774841
	C403.992249,383.965363 405.468323,385.160248 406.831085,386.079071
	C409.170044,387.656006 411.545532,389.262573 414.104614,390.414795
	C426.912262,396.181335 428.851074,398.189331 437.607483,382.012512
M235.650742,419.498199
	C235.889679,418.747162 236.128616,417.996094 236.391434,417.170013
	C227.404465,416.758881 221.298492,420.243652 217.884033,427.469818
	C216.686905,430.003387 217.736481,432.052490 219.338760,433.792206
	C221.076553,435.679077 222.686523,434.000610 224.160675,433.104767
	C229.285767,429.990234 232.615372,425.297821 235.650742,419.498199
M272.649872,218.034546
	C271.708221,219.517410 269.856628,220.355026 269.526886,222.309113
	C282.766113,225.422256 282.242981,224.310883 281.439575,212.954010
	C277.783905,212.890182 275.346527,215.018326 272.649872,218.034546
M145.249100,245.189087
	C145.499008,246.206192 144.617706,247.502274 146.114685,248.396072
	C149.148010,245.162384 154.202682,243.531143 154.158951,237.877960
	C148.541840,236.913788 146.794891,238.264740 145.249100,245.189087
M351.460602,76.401413
	C353.855499,77.750504 355.667389,77.373055 354.683441,74.351509
	C353.908752,71.972534 352.694550,69.334869 349.839813,68.108177
	C348.447266,71.280815 350.071045,73.505089 351.460602,76.401413
z"/>
<path fill="currentColor" opacity="1.000000" stroke="none"
	d="
M323.047485,265.663910
	C321.127258,280.569794 315.830322,293.164246 303.697937,302.075867
	C305.405731,293.512024 310.373596,286.440674 313.841156,278.708496
	C317.402557,270.767029 319.086365,262.471008 319.581146,253.625381
	C324.100220,256.569672 323.084381,261.053711 323.047485,265.663910
z"/>
<path fill="currentColor" opacity="1.000000" stroke="none"
	d="
M290.408508,306.607605
	C292.223999,306.163055 293.749939,306.370178 293.440125,308.199890
	C293.003510,310.778687 291.138428,311.587097 288.585693,310.852081
	C287.447571,308.839203 288.745300,307.787170 290.408508,306.607605
z"/>
<path fill="currentColor" opacity="1.000000" stroke="none"
	d="
M300.521423,182.443726
	C294.278748,189.800095 287.413361,195.443115 277.481262,196.086411
	C285.187286,186.182587 298.307587,181.979355 304.515717,170.334976
	C305.804382,175.146088 303.282745,178.654465 300.521423,182.443726
z"/>
<path fill="currentColor" opacity="1.000000" stroke="none"
	d="
M393.199158,222.769226
	C392.520844,222.002106 392.054779,221.522064 391.651031,220.994385
	C390.835602,219.928787 389.801514,218.709869 390.961212,217.457596
	C392.375610,215.930298 393.694580,217.211014 394.867126,218.092026
	C402.323273,223.694229 408.217957,230.594711 411.996490,239.168076
	C413.133209,241.747269 414.003693,244.454208 414.846436,247.149429
	C415.574280,249.477142 415.441925,251.745590 413.545532,253.819519
	C409.716858,252.599152 408.558624,249.203674 407.258179,246.048889
	C403.805969,237.674042 399.329163,229.935745 393.199158,222.769226
z"/>
<path fill="currentColor" opacity="1.000000" stroke="none"
	d="
M354.777313,289.480621
	C357.790314,299.675201 358.614349,309.488678 354.769836,319.355591
	C350.100525,306.956146 352.535919,293.427338 347.315155,280.241058
	C352.345703,282.280060 353.442535,285.730682 354.777313,289.480621
z"/>
<path fill="currentColor" opacity="1.000000" stroke="none"
	d="
M318.098480,381.044281
	C316.287476,377.140564 318.040222,373.688782 319.102814,370.332062
	C320.971771,364.428101 322.398529,358.543152 321.921692,352.299103
	C321.812042,350.863556 321.537720,349.061646 323.671967,348.817657
	C325.295715,348.632019 325.873444,349.997284 326.372101,351.264069
	C329.314789,358.739990 325.887817,377.220795 318.098480,381.044281
z"/>
<path fill="currentColor" opacity="1.000000" stroke="none"
	d="
M266.817444,349.844177
	C270.234406,346.863068 271.821716,342.424896 276.167389,340.692291
	C277.436432,346.224457 270.045959,355.308533 261.788147,358.497803
	C262.070526,354.753906 264.823303,352.698517 266.817444,349.844177
z"/>
<path fill="currentColor" opacity="1.000000" stroke="none"
	d="
M255.301590,267.504761
	C245.259125,273.425903 235.009125,275.918793 223.787140,272.281738
	C234.522751,266.670654 247.119858,268.228607 258.006256,262.589111
	C258.349945,265.396149 256.549255,266.075562 255.301590,267.504761
z"/>
<path fill="currentColor" opacity="1.000000" stroke="none"
	d="
M215.520599,330.528229
	C217.610153,328.990143 219.100616,327.084869 221.648193,327.031525
	C221.907593,333.484772 215.653412,339.414124 208.144089,339.655396
	C208.830078,335.246368 212.445831,333.306976 215.520599,330.528229
z"/>
<path fill="currentColor" opacity="1.000000" stroke="none"
	d="
M229.673462,153.412445
	C228.042068,151.629257 226.205246,150.363556 226.037277,146.688263
	C232.888641,151.681046 240.969910,152.346848 246.548065,158.222473
	C240.173630,159.722580 234.888412,157.337784 229.673462,153.412445
z"/>
<path fill="currentColor" opacity="1.000000" stroke="none"
	d="
M241.528320,217.526550
	C243.394272,216.841461 244.875580,216.083786 246.679977,216.473267
	C243.839691,222.080414 238.453262,224.188049 230.550690,222.707581
	C233.575195,219.457794 237.767136,219.331802 241.528320,217.526550
z"/>
<path fill="currentColor" opacity="1.000000" stroke="none"
	d="
M187.878723,182.803085
	C191.553818,183.251846 194.912994,183.172241 197.926758,185.098282
	C192.419403,188.928787 183.669006,188.175049 177.527893,182.788208
	C181.401321,182.788208 184.415695,182.788208 187.878723,182.803085
z"/>
<path fill="currentColor" opacity="1.000000" stroke="none"
	d="
M451.124908,225.763412
	C450.344788,226.785751 449.454712,226.686081 448.715088,226.403168
	C440.018555,223.076538 431.341125,219.700104 422.100128,216.120468
	C430.817749,212.554001 446.312805,217.836380 451.124908,225.763412
z"/>
<path fill="currentColor" opacity="1.000000" stroke="none"
	d="
M460.047974,230.975220
	C463.747589,230.213654 464.782471,232.556747 466.231018,236.389923
	C462.570862,235.403366 459.883942,235.171860 460.047974,230.975220
z"/>
<path fill="currentColor" opacity="1.000000" stroke="none"
	d="
M324.417419,207.303925
	C324.115356,208.832245 323.589722,209.797806 321.970520,210.837967
	C320.053680,206.739365 318.894226,202.815704 319.194763,197.471817
	C324.007843,199.747849 324.739563,203.065811 324.417419,207.303925
z"/>
<path fill="currentColor" opacity="1.000000" stroke="none"
	d="
M461.028809,304.252930
	C460.726044,302.610931 460.201019,301.278137 461.465790,300.221375
	C466.744080,302.158478 469.006989,311.044495 465.651520,317.891846
	C461.844269,314.069458 462.690735,308.900635 461.028809,304.252930
z"/>
<path fill="currentColor" opacity="1.000000" stroke="none"
	d="
M463.881165,263.911743
	C465.995850,265.996552 468.085175,267.730927 467.603607,271.120239
	C463.071350,271.312317 461.202179,268.107239 460.368561,264.964020
	C459.655792,262.276520 461.952179,262.857666 463.881165,263.911743
z"/>
<path fill="currentColor" opacity="1.000000" stroke="none"
	d="
M211.152985,377.368835
	C215.085892,376.163208 214.641281,378.786438 213.912308,380.508362
	C212.061508,384.880249 208.785446,387.832306 203.516281,389.351898
	C203.972275,383.558350 207.861603,380.838013 211.152985,377.368835
z"/>
<path fill="currentColor" opacity="1.000000" stroke="none"
	d="
M289.497955,407.389160
	C288.281372,408.467560 287.662720,409.841156 285.618164,409.681152
	C285.109741,404.455292 287.701080,400.195618 289.841553,395.835938
	C290.308655,394.884583 291.326904,394.400909 292.389618,394.828491
	C293.870819,395.424500 294.152557,396.757446 293.906586,398.155975
	C293.317841,401.503235 291.770752,404.427460 289.497955,407.389160
z"/>
<path fill="currentColor" opacity="1.000000" stroke="none"
	d="
M256.520416,381.467896
	C258.591766,383.476685 257.208405,385.022369 256.172729,386.410187
	C253.190445,390.406464 250.252502,394.544464 243.405838,395.654602
	C247.437683,389.540680 250.436493,384.251465 256.520416,381.467896
z"/>
</svg>
