<svg version="1.1" id="Layer_1" xmlns="http://www.w3.org/2000/svg" xmlns:xlink="http://www.w3.org/1999/xlink" x="0px" y="0px"
	 width="100%" viewBox="0 0 368 368" enable-background="new 0 0 368 368" xml:space="preserve">
<path fill="currentColor" opacity="1.000000" stroke="none"
	d="
M157.714050,246.986694
	C156.446915,224.750488 155.178864,202.993652 153.940735,181.235138
	C153.165665,167.614075 152.456161,153.989288 151.679993,140.368301
	C150.799881,124.923584 149.875671,109.481384 148.977798,94.037666
	C148.871429,92.208145 148.868225,90.371193 148.716629,88.546043
	C148.341843,84.033653 150.699951,82.003036 154.903061,81.993607
	C178.232040,81.941277 201.561234,81.948051 224.890305,81.977623
	C229.368179,81.983299 231.608292,84.115288 231.303223,88.838600
	C229.995300,109.088570 228.742111,129.342300 227.545441,149.599167
	C226.740845,163.218796 226.098724,176.847961 225.322540,190.469360
	C224.063782,212.559265 222.738388,234.645401 221.477234,256.735199
	C221.126465,262.879089 221.545074,269.066071 220.377716,275.164612
	C219.794388,278.212067 221.270538,279.741547 224.151947,280.497162
	C229.783356,281.973969 235.345840,283.713745 240.977905,285.187836
	C245.124603,286.273163 246.653488,288.909698 246.165756,292.977661
	C245.682526,297.007935 242.923172,298.087250 239.413971,298.088074
	C206.419586,298.095703 173.425217,298.092560 140.430832,298.082397
	C136.838593,298.081299 134.272308,296.737732 133.824463,292.784973
	C133.389206,288.943298 134.717484,286.411591 138.730225,285.362885
	C144.362000,283.891083 149.891022,282.025543 155.524307,280.560303
	C158.950958,279.668976 159.895660,277.700073 159.611526,274.344757
	C158.853714,265.395935 158.337845,256.426575 157.714050,246.986694
M158.207611,98.772522
	C158.487762,104.239601 158.123535,109.721436 159.063202,115.182373
	C159.521606,117.846420 160.569504,118.940239 163.219955,118.934921
	C181.006622,118.899200 198.793549,118.893433 216.580093,118.958267
	C219.486465,118.968864 220.520630,117.787712 220.975113,114.908447
	C221.889893,109.112968 221.471664,103.295258 221.873505,97.501747
	C222.354950,90.560829 222.095413,90.588196 214.971817,90.660988
	C198.354523,90.830811 181.731964,90.880508 165.116425,90.640587
	C157.868591,90.535934 157.505005,90.539078 158.207611,98.772522
M211.549286,270.513397
	C210.315811,268.929718 208.834137,269.882050 207.433060,270.123505
	C198.268814,271.703369 189.116150,272.749084 179.776291,271.406525
	C175.965866,270.858765 172.227005,269.238098 168.269531,269.811798
	C167.708893,277.664124 167.943085,277.974579 174.959625,277.996582
	C185.079361,278.028320 195.199295,278.017731 205.319092,277.995270
	C211.817413,277.980835 211.875137,277.896667 211.549286,270.513397
M218.575867,289.102600
	C219.473038,289.010193 220.411987,289.946381 221.310150,289.006378
	C214.308578,286.395050 166.073807,286.203949 158.955460,289.007782
	C161.206161,289.007782 162.813416,289.006714 164.420654,289.007996
	C182.235596,289.022034 200.050537,289.036407 218.575867,289.102600
z"/>
</svg>
