<svg version="1.1" id="Layer_1" xmlns="http://www.w3.org/2000/svg" xmlns:xlink="http://www.w3.org/1999/xlink" x="0px" y="0px"
	 width="100%" viewBox="0 0 368 368" enable-background="new 0 0 368 368" xml:space="preserve">
<path fill="currentColor" opacity="1.000000" stroke="none"
	d="
M219.681976,290.934631
	C199.478073,298.300201 179.573868,298.529449 159.816223,290.977966
	C151.703796,287.877350 144.374390,283.266541 142.142944,274.053314
	C141.059067,269.578308 141.098434,264.818542 140.757935,260.178223
	C138.798676,233.478989 136.837494,206.779755 134.956970,180.074890
	C133.461533,158.838516 132.089401,137.593491 130.644897,116.353500
	C130.001846,106.898056 129.342407,97.443527 128.631866,87.992981
	C128.426331,85.259422 128.926208,83.625595 132.284775,83.633156
	C171.099823,83.720512 209.915100,83.702759 248.730301,83.730339
	C249.376923,83.730797 250.023361,83.948524 250.926666,84.111061
	C251.889954,88.210373 251.374420,92.341530 251.074371,96.421623
	C249.879578,112.668190 248.588745,128.907852 247.285400,145.146210
	C245.715912,164.700455 244.052628,184.247269 242.515228,203.803986
	C241.381439,218.226318 240.400818,232.660660 239.320297,247.087265
	C238.662216,255.873459 238.123352,264.674316 237.188995,273.432068
	C236.580185,279.138580 232.709641,283.010010 228.306534,286.172119
	C225.759781,288.001099 222.804932,289.261810 219.681976,290.934631
M136.243896,113.583138
	C137.266891,128.015228 138.313614,142.445679 139.306473,156.879852
	C140.390793,172.643600 141.339691,188.417114 142.502716,204.174911
	C144.020432,224.738770 146.237671,245.269745 147.051270,265.858459
	C147.426468,275.353271 151.732910,280.717041 159.497116,284.401184
	C170.755249,289.743256 182.772934,291.421722 195.038300,290.468719
	C205.016693,289.693451 214.883820,287.846375 223.516235,282.176178
	C227.502853,279.557556 231.106888,276.475250 231.566299,271.335632
	C232.395233,262.062592 232.991852,252.768814 233.682297,243.483444
	C234.779572,228.726852 235.823334,213.966080 236.982651,199.214371
	C238.493561,179.988876 240.129181,160.773193 241.647369,141.548248
	C242.904053,125.634972 243.951782,109.704025 245.366913,93.805374
	C245.668015,90.422562 244.902954,89.314339 241.531265,89.320473
	C207.201324,89.382835 172.871170,89.378426 138.541260,89.304550
	C135.222748,89.297409 134.068481,90.519524 134.433914,93.781982
	C135.136780,100.056885 135.637634,106.354408 136.243896,113.583138
z"/>
<path fill="currentColor" opacity="1.000000" stroke="none"
	d="
M151.697601,257.968750
	C150.454956,238.741547 149.186356,219.987457 148.000107,201.228149
	C146.845108,182.963165 145.761780,164.693619 144.673035,146.424515
	C144.239380,139.147568 143.035248,131.893509 143.826569,124.319862
	C148.133850,123.125259 152.443039,123.614906 156.686569,123.859474
	C159.910507,124.045273 159.171539,126.864845 159.309189,128.886963
	C160.280396,143.154327 161.369263,157.417130 162.047440,171.699112
	C162.275665,176.504913 164.292328,177.448135 168.346863,176.270721
	C168.346863,169.688080 168.553055,163.114197 168.297455,156.558304
	C167.934616,147.252167 167.293365,137.954987 166.643204,128.662918
	C166.393494,125.094116 167.538605,123.591721 171.375473,123.617867
	C191.370117,123.754105 211.366516,123.730911 231.361511,123.619415
	C234.924500,123.599548 236.577881,124.617279 236.293045,128.451431
	C235.085587,144.705338 234.040558,160.971207 232.891190,177.229523
	C232.082138,188.673767 231.120987,200.107666 230.370026,211.555511
	C229.226776,228.983612 228.149078,246.416550 227.159821,263.854004
	C226.696579,272.019745 222.088425,277.132782 215.068100,280.142548
	C198.157654,287.392456 181.129135,287.186981 164.134033,280.222931
	C154.297836,276.192383 151.590088,268.130371 151.697601,257.968750
z"/>
</svg>
