<svg version="1.1" id="Layer_1" xmlns="http://www.w3.org/2000/svg" xmlns:xlink="http://www.w3.org/1999/xlink" x="0px" y="0px"
	 width="100%" viewBox="0 0 336 352" enable-background="new 0 0 336 352" xml:space="preserve">
<path fill="currentColor" opacity="1.000000" stroke="none"
	d="
M193.822205,299.083740
	C180.601410,298.866547 168.109955,297.359344 156.680237,291.107330
	C147.978271,286.347382 142.520462,279.666473 143.670792,269.003387
	C144.205688,264.045013 144.282669,259.039001 144.673767,254.062958
	C146.253342,233.965912 142.116898,214.695053 136.498581,195.591965
	C130.474075,175.107697 128.523514,154.106003 129.803619,132.863876
	C130.735703,117.396629 133.899307,102.249062 137.927109,87.291183
	C138.642136,84.635826 140.213333,83.638779 142.994141,83.644432
	C175.317474,83.710144 207.641159,83.730362 239.964249,83.619026
	C243.746964,83.606003 244.579956,85.675041 245.427094,88.667061
	C256.216309,126.773064 256.517639,164.837128 244.728577,202.746887
	C238.751373,221.967590 237.150391,241.417358 239.019028,261.416260
	C240.943741,282.015167 235.418442,289.435028 215.407440,295.607239
	C208.507568,297.735413 201.390091,298.299652 193.822205,299.083740
M220.075546,287.613647
	C232.547745,281.472778 233.840210,278.215790 233.138321,264.546631
	C232.158020,245.455368 231.434067,226.350388 237.327225,207.615570
	C242.568649,190.952698 246.511032,173.881058 247.557175,156.379761
	C248.827499,135.128189 246.040436,114.234100 240.776764,93.623352
	C239.874298,90.089584 238.084427,89.291641 234.783386,89.301476
	C205.957764,89.387337 177.131470,89.400177 148.306183,89.264320
	C144.624039,89.246964 143.074127,90.491806 142.156036,94.055138
	C133.694397,126.896667 131.904724,159.944885 141.797775,192.601395
	C149.615158,218.406143 152.148560,244.349304 149.371399,270.989441
	C148.874954,275.751648 150.867722,279.411255 154.349747,282.387177
	C157.545074,285.118073 161.142838,287.251556 165.122452,288.583679
	C183.273071,294.659576 201.369949,294.699005 220.075546,287.613647
z"/>
<path fill="currentColor" opacity="1.000000" stroke="none"
	d="
M150.202759,206.615341
	C144.264481,183.776291 139.813354,161.147400 140.626953,137.774139
	C140.801575,132.757263 141.716110,127.886589 142.517776,122.964066
	C143.446426,117.261810 147.681076,118.586189 151.034851,118.879776
	C155.371780,119.259438 153.218201,122.659409 152.866318,124.702332
	C149.885086,142.009735 151.381516,159.157455 154.204773,176.309479
	C154.731003,179.506500 156.521790,180.054657 159.097534,179.790390
	C162.507095,179.440613 161.810806,176.841965 161.400635,174.840668
	C158.809845,162.199081 158.379227,149.419937 158.690369,136.580994
	C158.807785,131.735611 159.690933,127.005112 160.718475,122.285645
	C161.271439,119.745842 162.719727,118.700943 165.290497,118.705414
	C188.788605,118.746284 212.286819,118.753380 235.784943,118.723190
	C238.654846,118.719498 239.835617,120.098473 240.442551,122.803596
	C243.140091,134.826691 242.709686,146.950836 241.795273,159.082108
	C240.059830,182.106277 232.496811,203.952881 228.141495,226.440903
	C225.795456,238.554276 226.761642,251.059296 227.881119,263.292236
	C228.623825,271.407867 226.094879,276.998291 219.345490,280.814178
	C208.016678,287.219147 195.662415,288.290283 183.027664,286.886627
	C175.883377,286.092957 168.939713,284.278839 162.790039,280.292633
	C156.990082,276.533112 154.691345,271.605164 155.180420,264.285156
	C156.468018,245.012909 157.168411,225.649384 150.202759,206.615341
z"/>
</svg>
