<svg version="1.1" id="Layer_1" xmlns="http://www.w3.org/2000/svg" xmlns:xlink="http://www.w3.org/1999/xlink" x="0px" y="0px"
	 width="100%" viewBox="0 0 368 368" enable-background="new 0 0 368 368" xml:space="preserve">
<path fill="currentColor" opacity="1.000000" stroke="none"
	d="
M150.589508,292.739044
	C142.731277,290.172394 137.351349,286.187073 138.655533,277.158081
	C138.745682,276.533966 138.709137,275.573700 138.325119,275.246063
	C131.201050,269.167297 133.826004,260.569153 133.117920,253.143143
	C131.381927,234.937592 130.814636,216.623016 129.628738,198.361954
	C128.162827,175.789291 126.486122,153.230316 125.032120,130.656937
	C124.583923,123.698692 123.897003,116.693932 125.696030,109.783867
	C128.431000,99.278969 135.343521,93.015480 145.561722,90.015411
	C164.082275,84.577797 182.924225,81.893097 202.222977,83.735733
	C213.850006,84.845879 225.240402,87.364807 236.150574,91.538322
	C247.562744,95.903877 252.665131,104.962769 253.305298,116.769501
	C253.847809,126.774734 252.348221,136.707840 251.869812,146.677719
	C251.280197,158.964828 250.166412,171.226044 249.348328,183.503067
	C247.689560,208.396500 246.093567,233.294144 244.428711,258.187164
	C244.173965,261.996094 245.539581,266.355713 243.482666,269.498444
	C240.464478,274.109863 239.208694,278.771667 238.850372,284.154907
	C238.617371,287.655518 235.420029,289.669647 232.312027,291.166199
	C225.740982,294.330170 218.603317,295.507202 211.510544,295.956665
	C191.236877,297.241394 170.928894,298.053009 150.589508,292.739044
M135.363708,115.039230
	C135.100220,125.008224 135.098190,125.020805 145.086121,126.634613
	C149.186432,127.297134 153.308731,127.827713 157.401489,128.531891
	C165.245193,129.881424 168.260117,133.435837 168.287109,141.379578
	C168.326187,152.875610 168.318710,164.371887 168.294342,175.867981
	C168.287811,178.948578 168.657501,181.822220 172.628677,181.715424
	C176.233765,181.618469 176.676315,178.919479 176.669678,176.029068
	C176.649765,167.365326 176.658936,158.701523 176.656967,150.037735
	C176.652496,130.277390 177.096954,129.766174 196.660065,129.728058
	C210.345932,129.701385 223.895554,128.459229 237.280807,125.609016
	C239.619293,125.111069 242.217621,124.944069 242.780457,121.557465
	C244.404861,111.783081 239.606598,103.580025 230.191650,100.499954
	C203.571274,91.791138 176.946121,92.108513 150.126709,99.861610
	C142.304077,102.123024 136.977036,105.973602 135.363708,115.039230
M139.099426,189.760986
	C140.528656,211.842606 141.956924,233.924301 143.387543,256.005829
	C144.132187,267.499725 145.291687,268.695221 156.963272,270.707611
	C172.666656,273.415192 188.509918,273.034485 204.300110,272.439728
	C212.214355,272.141663 220.266205,271.536438 227.896011,268.771606
	C231.105301,267.608643 233.472824,265.878174 233.695663,262.118591
	C233.971130,257.471313 234.358109,252.830734 234.685608,248.186462
	C235.785309,232.591446 236.835327,216.992767 237.987701,201.401657
	C239.495102,181.007431 241.103760,160.620697 242.590118,140.225006
	C242.700714,138.707596 243.324371,136.836548 240.875824,135.368805
	C238.425049,138.542389 238.631790,142.338181 238.366516,145.937561
	C237.217377,161.529480 236.206940,177.131821 235.013580,192.720230
	C233.515762,212.285431 231.711334,231.828781 230.390869,251.405273
	C229.718277,261.376709 228.007416,264.483246 217.951965,266.348816
	C199.144608,269.838043 180.133911,269.541229 161.319626,266.653656
	C150.072525,264.927429 148.029373,261.527374 147.668411,250.057465
	C147.631775,248.893143 147.548859,247.729492 147.458389,246.567780
	C145.856552,226.001770 144.289047,205.432968 142.631989,184.871399
	C141.416245,169.785934 140.090607,154.709259 138.788086,139.630905
	C138.642838,137.949326 138.983795,135.830688 136.012253,135.698853
	C134.181793,140.612427 136.200500,145.328690 136.412369,150.007080
	C136.999054,162.961731 138.092056,175.893433 139.099426,189.760986
M219.302399,151.698868
	C228.595383,150.487076 229.499695,149.432220 228.709534,141.544037
	C228.475647,139.209213 227.606537,138.187973 225.261078,138.569046
	C214.063980,140.388168 202.772522,140.505310 191.474335,140.346497
	C188.573303,140.305725 187.075958,141.280121 187.298508,144.376663
	C187.429230,146.195724 187.401520,148.035889 187.305862,149.859253
	C187.160110,152.637802 188.411392,153.667740 191.159805,153.697342
	C200.311295,153.795914 209.397614,153.145721 219.302399,151.698868
M200.341141,283.243500
	C183.599869,283.550385 166.870468,283.684387 149.700317,279.162506
	C159.634415,288.291351 217.945129,288.467773 228.628418,279.279602
	C218.965424,281.499176 210.143829,282.457184 200.341141,283.243500
M149.338821,146.920319
	C150.157425,151.714249 154.013580,150.418884 157.631836,151.199020
	C157.631836,147.857559 157.758621,144.922287 157.599426,142.002594
	C157.404617,138.429977 154.414093,138.733353 152.067169,138.483688
	C149.390213,138.198868 149.317429,140.208344 149.315170,142.120499
	C149.313599,143.441574 149.314987,144.762650 149.338821,146.920319
M210.360886,232.620346
	C207.603226,233.002762 206.165421,234.535019 206.425812,237.364212
	C206.578339,239.021393 207.616287,240.139465 209.211670,240.506851
	C211.201279,240.965027 212.935959,240.306351 213.887085,238.481369
	C215.502121,235.382538 213.506439,233.907684 210.360886,232.620346
M223.656906,180.337494
	C223.947678,177.328644 222.164917,175.980316 219.555862,175.871170
	C217.512543,175.785690 216.242798,177.309341 215.748138,179.229248
	C215.266266,181.099579 216.161240,182.597443 217.809097,183.292114
	C220.296509,184.340775 222.355621,183.670654 223.656906,180.337494
M207.338470,196.070847
	C205.643753,199.009323 205.787247,201.460663 209.424652,202.577103
	C211.097015,203.090424 212.631180,202.386276 213.715805,200.915771
	C214.877167,199.341248 214.598877,197.824829 213.453033,196.432602
	C211.861801,194.499237 209.960144,194.177383 207.338470,196.070847
M216.657852,220.092255
	C218.607193,222.052307 220.731583,222.415253 222.719330,220.328720
	C224.121826,218.856491 224.158859,216.925415 222.953964,215.307678
	C221.926025,213.927505 220.379974,212.994217 218.612122,213.941925
	C216.409393,215.122757 214.823990,216.743881 216.657852,220.092255
z"/>
</svg>
