<svg version="1.1" id="Layer_1" xmlns="http://www.w3.org/2000/svg" xmlns:xlink="http://www.w3.org/1999/xlink" x="0px" y="0px"
	 width="100%" viewBox="0 0 368 368" enable-background="new 0 0 368 368" xml:space="preserve">
<path fill="currentColor" opacity="1.000000" stroke="none"
	d="
M218.850800,294.127197
	C199.888336,300.556091 181.282104,300.699493 162.689621,294.292999
	C157.767197,292.596863 153.227936,290.152863 149.340897,286.630493
	C144.936844,282.639618 142.428421,277.894135 142.628098,271.701050
	C142.976776,260.886597 143.734100,250.095490 143.783234,239.257370
	C143.847015,225.180496 139.870178,211.972061 136.161484,198.698547
	C130.149918,177.182983 127.410248,155.318680 128.794678,133.032333
	C129.755707,117.561852 132.845322,102.409889 136.900177,87.456688
	C137.598785,84.880424 138.975266,83.640800 141.843704,83.647064
	C174.336838,83.718102 206.830276,83.725975 239.323349,83.643959
	C242.916367,83.634888 243.640228,85.803757 244.406265,88.543167
	C254.673477,125.259659 255.811691,162.062195 244.756836,198.767792
	C238.531723,219.437134 235.458023,240.283234 238.099365,261.814484
	C238.200439,262.638397 238.134567,263.481354 238.202454,264.310883
	C239.555496,280.843475 235.995239,286.575134 218.850800,294.127197
M136.052017,169.679352
	C137.008804,178.634125 138.726959,187.515808 141.570496,195.985321
	C149.576080,219.829926 150.947556,244.183609 148.359467,268.932922
	C147.555069,276.625092 151.017960,281.665283 157.351273,285.268036
	C171.503784,293.318787 186.855362,293.890289 202.452255,292.132324
	C210.257645,291.252533 217.720978,288.949799 224.523987,284.728241
	C230.899536,280.771973 233.273056,275.310577 232.582077,267.854370
	C230.496155,245.345978 231.044113,223.102051 238.012253,201.200226
	C249.296982,165.730774 249.461700,129.909210 239.844650,93.982162
	C239.067078,91.077316 238.161697,89.270416 234.656540,89.282310
	C205.170654,89.382317 175.684265,89.364204 146.198181,89.304749
	C143.607346,89.299530 142.143219,90.231918 141.520111,92.725479
	C135.263260,117.764145 132.002579,143.022736 136.052017,169.679352
z"/>
<path fill="currentColor" opacity="1.000000" stroke="none"
	d="
M233.592819,199.442596
	C231.425262,207.895996 228.973358,215.877609 227.430176,224.031219
	C224.996902,236.887772 225.516205,250.035049 226.871674,262.859528
	C227.928955,272.862854 223.297943,278.684509 215.636658,282.260376
	C204.936066,287.254883 193.545334,288.280457 181.950790,286.876404
	C175.667358,286.115509 169.506409,284.611664 163.848755,281.576996
	C155.780502,277.249298 153.752518,272.293915 154.282318,263.206696
	C155.397675,244.076324 155.158951,225.162918 149.389679,206.380264
	C142.687225,184.559494 138.885529,162.058105 139.611389,139.011856
	C139.737762,134.999939 140.181915,131.054138 140.690720,127.096504
	C141.781952,118.608688 142.963562,117.768723 151.928879,119.284172
	C153.385727,123.055649 151.492249,126.745506 151.050171,130.398117
	C149.209564,145.605850 150.778702,160.581894 153.075699,175.581085
	C153.602951,179.024033 155.160568,180.429779 158.360229,179.728043
	C161.946198,178.941605 160.428436,176.222488 160.120956,174.062820
	C157.745880,157.380783 156.122284,140.709061 159.327774,123.913536
	C160.053467,120.111198 161.598984,118.612778 165.581055,118.639442
	C188.243027,118.791206 210.906738,118.767700 233.569275,118.669220
	C237.165115,118.653595 238.852814,119.774124 239.649673,123.515106
	C242.041840,134.745422 241.788101,146.085022 240.977875,157.338470
	C239.962814,171.436829 237.245193,185.336670 233.592819,199.442596
z"/>
</svg>
