<svg version="1.1" id="Layer_1" xmlns="http://www.w3.org/2000/svg" xmlns:xlink="http://www.w3.org/1999/xlink" x="0px" y="0px"
	 width="100%" viewBox="0 0 368 368" enable-background="new 0 0 368 368" xml:space="preserve">
<path fill="currentColor" opacity="1.000000" stroke="none"
	d="
M158.863281,291.336121
	C149.450668,287.086029 140.981461,282.239716 139.928604,270.984558
	C138.906052,260.053589 138.464218,249.069489 137.666458,238.116074
	C136.131882,217.046188 134.511627,195.982559 132.964813,174.913559
	C132.723267,171.623642 131.389511,168.856949 129.505066,166.229645
	C120.419159,153.562027 119.081841,140.350403 126.433197,126.327377
	C130.877075,117.850510 128.215057,108.671410 128.317123,99.789131
	C128.364838,95.636261 127.950943,91.477753 127.736397,87.322311
	C127.606461,84.805496 128.777603,83.640312 131.304764,83.700226
	C133.469650,83.751556 135.637375,83.670898 137.803833,83.670891
	C172.137009,83.670807 206.470169,83.671516 240.803345,83.679222
	C248.382339,83.680923 248.443558,83.695679 248.191940,91.472641
	C248.068222,95.297012 247.499649,99.109322 247.428329,102.932602
	C247.246140,112.698700 246.845718,122.219337 251.588791,131.627823
	C257.431976,143.218521 254.431320,154.797043 247.267181,165.107437
	C244.159760,169.579544 242.784424,174.354218 242.423492,179.543579
	C240.634262,205.268860 238.933136,231.000259 237.189392,256.728729
	C236.874481,261.374939 236.530045,266.019531 236.155991,270.661377
	C235.467377,279.206787 230.218628,284.503693 223.248093,288.472351
	C215.289429,293.003601 206.525116,295.200073 197.548584,296.001160
	C184.524002,297.163452 171.586151,296.470551 158.863281,291.336121
M242.747375,161.277954
	C249.901733,150.743103 250.248657,139.918945 244.157028,128.802979
	C241.781555,124.468216 240.463974,119.841225 241.137131,114.885590
	C242.106949,107.745987 241.362442,100.565552 241.874878,93.423065
	C242.093216,90.379929 240.729446,89.325256 237.754395,89.329735
	C204.589249,89.379684 171.423889,89.382812 138.258850,89.299522
	C134.807312,89.290855 134.020523,90.862549 134.134781,93.908730
	C134.334610,99.236053 133.700821,104.660713 134.483078,109.884865
	C135.704529,118.042343 133.953400,125.273773 130.288895,132.473663
	C125.670242,141.548233 126.471039,150.767700 132.091568,159.033569
	C137.171082,166.503769 139.112518,174.339584 139.596085,183.327454
	C141.052139,210.390137 143.650970,237.390427 145.191635,264.449921
	C145.774780,274.692169 149.952713,281.438995 159.400391,285.070801
	C160.952499,285.667480 162.477737,286.347351 164.058655,286.853699
	C176.500656,290.838318 189.181213,291.732330 202.022873,289.380920
	C210.098923,287.902161 217.893860,285.574158 224.475662,280.294830
	C227.609055,277.781555 229.546768,274.777618 229.848877,270.599457
	C231.731064,244.568893 233.551880,218.531540 235.776230,192.529221
	C236.667938,182.105255 234.778030,170.944199 242.747375,161.277954
z"/>
<path fill="currentColor" opacity="1.000000" stroke="none"
	d="
M148.687317,232.136429
	C147.314804,212.256943 145.994934,192.843521 144.541550,173.440079
	C144.241608,169.435608 143.017059,165.714996 140.549164,162.323730
	C133.345551,152.424911 131.937454,141.983627 138.342163,131.058060
	C138.510483,130.770935 138.749969,130.481995 138.792984,130.171280
	C139.888809,122.256889 145.444672,122.128578 151.591995,122.608910
	C156.538895,122.995422 157.347488,123.949028 155.105682,128.365250
	C152.843567,132.821503 150.427689,137.105850 150.217758,142.341934
	C149.963043,148.694672 152.000854,154.175186 155.887726,158.967331
	C158.970642,162.768280 160.757370,166.827026 160.363541,171.794846
	C160.144913,174.552551 160.696899,176.774109 164.330322,176.663452
	C167.900009,176.554718 167.768021,174.162720 167.613525,171.778717
	C167.242966,166.061172 166.145035,160.652069 162.276642,156.010620
	C156.179504,148.695007 155.240723,140.813171 160.571793,132.567947
	C160.932892,132.009460 161.444046,131.438385 161.525650,130.825272
	C162.660492,122.300270 168.585754,122.420937 175.241028,122.535065
	C193.064377,122.840706 210.897308,122.745216 228.724136,122.572464
	C232.709549,122.533844 235.026855,123.204391 236.131073,127.660034
	C237.149597,131.769928 240.109604,135.293610 241.133820,139.567902
	C243.114395,147.833389 240.550613,155.119141 235.924377,161.693649
	C232.580048,166.446426 231.591980,171.540085 231.266678,177.156708
	C230.180115,195.917007 228.805450,214.660599 227.543503,233.410751
	C226.828705,244.031097 225.953049,254.644333 225.477112,265.275421
	C225.244904,270.462097 222.754257,274.030273 218.925858,277.018494
	C212.078918,282.362823 203.882629,284.152344 195.607834,284.997253
	C183.695984,286.213531 172.003448,285.002808 161.142059,279.278931
	C154.361252,275.705505 150.886688,270.315033 150.622665,262.479523
	C150.286758,252.511337 149.362976,242.562943 148.687317,232.136429
z"/>
</svg>
