<svg version="1.1" id="Layer_1" xmlns="http://www.w3.org/2000/svg" xmlns:xlink="http://www.w3.org/1999/xlink" x="0px" y="0px"
	 width="100%" viewBox="0 0 368 368" enable-background="new 0 0 368 368" xml:space="preserve">
<path fill="currentColor" opacity="1.000000" stroke="none"
	d="
M138.659058,223.892090
	C138.661667,222.409042 138.638321,221.408401 138.670959,220.409607
	C138.763260,217.585464 138.205444,214.507126 139.154129,212.002548
	C140.354233,208.834167 144.140289,210.267822 146.720444,209.447556
	C153.645599,207.245880 158.561996,200.641312 158.634125,192.699326
	C158.749130,180.036270 158.661865,167.371475 158.687790,154.707489
	C158.713089,142.342957 163.909607,136.870621 176.045731,136.753632
	C190.041626,136.618698 204.040314,136.769211 218.036072,136.626617
	C221.738892,136.588913 222.805511,137.755432 222.650345,141.600540
	C221.756363,163.754868 223.203918,185.875275 224.016617,208.005661
	C224.614960,224.299454 225.841888,240.544464 227.328735,256.774445
	C227.586411,259.587189 227.861816,262.401642 228.251617,265.198181
	C228.860107,269.563782 227.523911,271.515381 222.638809,271.395844
	C210.315353,271.094330 197.979645,271.294373 185.648834,271.293701
	C170.985184,271.292908 156.320618,271.203827 141.658478,271.352234
	C137.862564,271.390656 136.321625,270.382935 136.578415,266.263306
	C137.448059,252.311630 137.990921,238.339600 138.659058,223.892090
M162.197021,192.500000
	C162.208160,210.124100 162.200897,227.748245 162.253403,245.372223
	C162.260071,247.611984 161.794449,250.588638 165.303925,250.496704
	C168.041306,250.425003 168.600845,248.008347 168.603241,245.739288
	C168.630493,219.968292 168.630066,194.197235 168.588440,168.426270
	C168.584488,165.985779 168.026749,163.403595 164.909241,163.561554
	C161.842331,163.716934 162.212219,166.462021 162.198151,168.555634
	C162.146683,176.203415 162.189087,183.851822 162.197021,192.500000
M185.015381,164.972321
	C181.176910,162.825256 179.526566,163.542252 179.402069,167.817795
	C179.212967,174.311783 179.350311,180.815277 179.348938,187.314743
	C179.344925,206.313324 179.322037,225.311935 179.359299,244.310440
	C179.364304,246.862045 178.683884,250.476227 182.578674,250.380829
	C186.384720,250.287598 185.615784,246.689270 185.651520,244.135757
	C185.723770,238.970520 185.685516,233.803436 185.664658,228.637238
	C185.579849,207.646652 185.484375,186.656113 185.015381,164.972321
M195.328995,214.499939
	C195.328125,222.657410 195.319687,230.814896 195.330551,238.972351
	C195.334320,241.801514 195.292572,244.635895 195.451767,247.457733
	C195.543289,249.080124 196.471603,250.362457 198.223618,250.484360
	C200.233276,250.624222 201.271347,249.343323 201.551437,247.498749
	C201.724976,246.355896 201.668732,245.173965 201.668884,244.009583
	C201.672195,219.370697 201.673965,194.731827 201.654114,170.092957
	C201.652908,168.603806 201.687576,167.056046 201.307205,165.642761
	C200.948608,164.310410 199.836380,163.421860 198.283371,163.527405
	C196.965805,163.616913 196.018829,164.468430 195.734253,165.607666
	C195.378159,167.033279 195.342148,168.563553 195.339706,170.048950
	C195.315887,184.532578 195.327942,199.016251 195.328995,214.499939
z"/>
<path fill="currentColor" opacity="1.000000" stroke="none"
	d="
M130.002106,177.997498
	C129.993835,169.503815 130.002701,161.509506 129.966049,153.515411
	C129.954544,151.004272 129.646576,148.690063 127.775116,146.601425
	C113.926826,131.146118 118.082466,115.213005 137.890335,108.910591
	C136.499176,99.285126 139.468140,91.578651 149.056702,87.628906
	C158.942413,83.556755 167.232086,86.519539 174.161118,93.926544
	C175.917419,93.867561 176.496613,92.470474 177.434464,91.616302
	C184.923004,84.795891 195.233521,84.876984 201.895020,92.393410
	C204.379654,95.196892 206.237244,95.318802 209.499268,94.150299
	C218.357269,90.977234 227.813446,94.615059 232.362900,102.463333
	C237.034332,110.522026 235.449814,120.307396 228.480835,126.481743
	C225.336670,129.267410 221.680740,130.388489 217.479843,130.363144
	C203.157272,130.276733 188.833847,130.330841 174.510757,130.329391
	C161.336929,130.328064 152.440842,139.165527 152.360123,152.503998
	C152.279495,165.827301 152.457672,179.153000 152.287079,192.474640
	C152.179840,200.849197 144.728607,205.915237 137.063309,203.073120
	C131.951538,201.177780 130.293076,196.927765 130.077255,191.984787
	C129.881256,187.496307 130.013885,182.993484 130.002106,177.997498
z"/>
<path fill="currentColor" opacity="1.000000" stroke="none"
	d="
M164.000092,277.662048
	C183.794189,277.663055 203.088333,277.693024 222.382278,277.640961
	C226.161972,277.630768 229.668854,277.281281 230.157486,282.689636
	C230.639069,288.020111 228.922256,292.005249 224.395798,293.509552
	C222.855576,294.021423 221.147354,294.230499 219.515335,294.233215
	C194.898819,294.273926 170.282227,294.247742 145.665649,294.262482
	C141.216492,294.265167 137.432495,293.252411 135.554703,288.625488
	C132.905426,282.097595 135.685120,277.683746 142.542709,277.669067
	C149.528488,277.654114 156.514297,277.663544 164.000092,277.662048
z"/>
<path fill="currentColor" opacity="1.000000" stroke="none"
	d="
M258.256165,228.627029
	C257.332336,235.506561 253.889938,240.037933 248.083359,242.919540
	C243.387360,245.249985 239.061707,248.345444 233.837845,250.233047
	C231.912277,246.256516 232.864197,242.343292 232.262100,238.668442
	C231.987442,236.992218 233.685059,236.192261 234.988052,235.442261
	C237.293686,234.115173 239.597717,232.783905 241.931244,231.507080
	C244.550064,230.074173 245.483093,228.111526 245.251770,224.972046
	C243.945770,207.247849 242.734039,189.513260 241.835983,171.764709
	C241.595779,167.017807 239.822540,165.161377 235.202713,165.318771
	C233.187408,165.387451 230.316025,166.319748 229.382401,163.828079
	C228.218307,160.721359 228.482620,157.266922 229.472290,154.037857
	C229.644073,153.477356 230.737167,152.937531 231.461792,152.847504
	C241.971115,151.542038 253.677032,154.452789 254.466400,169.540237
	C255.489792,189.100433 256.984375,208.635971 258.256165,228.627029
z"/>
</svg>
