<svg version="1.1" id="Layer_1" xmlns="http://www.w3.org/2000/svg" xmlns:xlink="http://www.w3.org/1999/xlink" x="0px" y="0px"
	 width="100%" viewBox="0 0 368 368" enable-background="new 0 0 368 368" xml:space="preserve">
<path fill="currentColor" opacity="1.000000" stroke="none"
	d="
M221.381287,294.602295
	C197.698273,303.958130 174.457474,304.480438 152.271057,291.933197
	C137.064011,283.333008 137.525909,268.424835 152.427582,259.240234
	C158.898117,255.252151 165.969070,252.635513 173.455078,251.819138
	C178.648438,251.252808 180.195923,249.127121 179.791397,244.131470
	C179.160645,236.342422 178.992172,228.510635 178.818649,220.692719
	C178.756302,217.883255 177.745712,216.599976 174.923615,215.981445
	C167.083374,214.263062 159.615158,211.528946 152.806961,207.112946
	C136.277328,196.391357 128.575806,178.148865 132.061569,158.814560
	C135.315796,140.764618 140.690231,123.284050 145.771622,105.726868
	C147.813004,98.673439 148.387146,91.670540 147.031769,84.543198
	C146.194443,80.140045 147.543121,78.621544 152.108780,78.650093
	C176.761520,78.804283 201.415787,78.713638 226.069534,78.703979
	C228.828583,78.702904 232.108124,78.609230 231.143692,82.683037
	C228.133301,95.399185 232.729568,106.974937 236.013504,118.786949
	C240.193970,133.823822 244.902954,148.721359 246.442978,164.390335
	C248.308426,183.370255 240.302856,197.195267 224.755402,207.217545
	C217.969894,211.591629 210.450546,214.369980 202.578430,215.968277
	C199.260544,216.641891 198.246826,218.139893 198.272491,221.358536
	C198.337524,229.514221 198.575775,237.703217 197.351959,245.799286
	C196.659576,250.379593 199.505341,251.111282 202.857742,251.563217
	C211.375656,252.711533 219.446991,255.205627 226.669647,259.942352
	C235.725204,265.881104 239.058243,274.141296 235.472931,281.907806
	C232.684631,287.947815 227.529846,291.599854 221.381287,294.602295
M139.946701,149.303741
	C139.478546,151.411499 138.997375,153.516449 138.544266,155.627441
	C135.320251,170.648193 137.088058,184.480499 148.330429,195.972168
	C156.705338,204.532822 167.229492,208.727798 178.794067,210.801865
	C181.287338,211.249039 184.152023,211.100586 184.359375,215.065491
	C185.359268,234.184128 186.149414,253.307770 186.447662,272.450989
	C186.478043,274.402039 186.474045,276.240601 183.759369,276.216187
	C181.221573,276.193359 180.817474,274.460968 180.779755,272.491211
	C180.706406,268.660370 180.638611,264.828278 180.659286,260.997162
	C180.673859,258.295227 179.598526,256.893280 176.747406,257.267761
	C167.188309,258.523315 158.084885,261.016998 150.885941,267.880249
	C145.674469,272.848755 145.871628,279.080292 151.146286,284.049957
	C154.981018,287.662964 159.654037,289.859344 164.578140,291.531097
	C176.659897,295.632843 189.110092,296.072083 201.570267,294.360748
	C210.332535,293.157288 218.877167,290.758270 225.918655,284.856567
	C232.468582,279.366882 232.677017,272.579865 226.210556,267.009186
	C219.142975,260.920685 210.510651,258.535492 201.487595,257.266907
	C198.531326,256.851227 197.197144,258.022675 197.196899,261.105072
	C197.196579,265.260254 197.289169,269.433105 196.439957,273.555023
	C196.085236,275.276855 195.348480,276.292297 193.479828,276.177979
	C191.625412,276.064484 190.843811,274.944092 190.794952,273.227081
	C190.752365,271.729614 190.770615,270.228119 190.823624,268.730591
	C191.441895,251.265289 192.153412,233.802597 192.627319,216.333435
	C192.718140,212.986130 194.078079,211.553772 197.153671,210.985962
	C200.582550,210.352936 204.016830,209.648087 207.361008,208.673416
	C232.355972,201.388504 243.718033,183.668274 239.760239,158.134583
	C237.742584,145.117737 233.750717,132.578857 230.328583,119.900627
	C227.529694,109.531319 223.051727,99.459557 224.628189,88.270828
	C225.149536,84.570679 222.526627,84.403954 219.806442,84.407494
	C199.147583,84.434402 178.488647,84.414619 157.829803,84.449028
	C156.396378,84.451408 154.788834,84.075691 153.143341,86.053261
	C154.245697,93.329674 153.383331,100.995224 151.102493,108.568321
	C147.122467,121.783104 143.166626,135.010635 139.946701,149.303741
z"/>
<path fill="currentColor" opacity="1.000000" stroke="none"
	d="
M206.532166,203.937729
	C192.217484,206.971268 178.379761,207.632065 165.131287,201.344437
	C152.431595,195.317230 145.092667,184.877167 143.112976,171.199219
	C142.015823,163.618820 144.500839,156.039917 146.234512,148.617554
	C148.009705,141.017441 150.158920,133.500534 152.294052,125.989746
	C154.567932,117.990959 155.181732,117.697502 163.534088,119.455933
	C164.498871,121.463341 163.314163,123.290337 162.813477,125.119980
	C158.998367,139.061569 154.793564,152.912964 153.667038,167.436554
	C153.487991,169.744690 152.629761,172.259552 156.323822,172.631714
	C159.618881,172.963669 160.539307,171.449142 160.810867,168.322311
	C162.185181,152.498108 166.884567,137.400055 171.221497,122.226692
	C171.928284,119.753830 173.330872,118.737930 175.891800,118.748589
	C190.547928,118.809563 205.204651,118.825394 219.860626,118.751831
	C222.708572,118.737534 224.007263,120.034004 224.763519,122.629120
	C229.041351,137.308914 233.295914,151.991760 235.071594,167.243698
	C236.532379,179.790970 224.933060,196.759338 211.156784,202.309753
	C209.769913,202.868515 208.334106,203.305847 206.532166,203.937729
z"/>
</svg>
