<svg version="1.1" id="Layer_1" xmlns="http://www.w3.org/2000/svg" xmlns:xlink="http://www.w3.org/1999/xlink" x="0px" y="0px"
	 width="100%" viewBox="0 0 368 368" enable-background="new 0 0 368 368" xml:space="preserve">
<path fill="currentColor" opacity="1.000000" stroke="none"
	d="
M277.401886,213.207977
	C275.003906,233.896729 265.659271,250.835281 251.224274,266.746307
	C261.298737,266.746307 270.042389,266.729126 278.785919,266.759338
	C280.779633,266.766235 282.827057,266.683472 284.752533,267.095978
	C287.202881,267.620850 289.065155,269.224457 289.047607,271.919312
	C289.029846,274.647583 287.168915,276.114227 284.607117,276.496368
	C282.640137,276.789764 280.626526,276.903687 278.635895,276.882812
	C267.141510,276.762543 255.641693,276.748077 244.156601,276.337463
	C239.144501,276.158234 235.284164,278.106384 230.412750,281.680237
	C237.231415,281.680237 242.819901,281.711731 248.407822,281.668610
	C251.855301,281.641998 255.076050,282.202271 255.229874,286.425232
	C255.387924,290.765472 252.152664,291.386322 248.705078,291.382172
	C226.205750,291.355164 203.633102,292.464661 181.225555,291.017487
	C152.975311,289.192963 130.831741,275.247986 114.782295,251.823914
	C110.910225,246.172684 107.443665,240.302582 104.809692,233.971100
	C101.979019,227.166824 103.148338,224.764328 110.067970,222.416336
	C113.332138,221.308716 116.796295,220.643539 120.014473,218.525192
	C115.150002,214.671494 110.449341,211.059128 105.874947,207.293396
	C100.966141,203.252380 96.583862,198.683807 93.019356,193.390961
	C90.676682,189.912384 91.000938,186.901184 94.639496,184.399643
	C110.705093,173.354523 126.693489,162.196335 142.813583,151.231613
	C148.670135,147.248047 154.724625,147.698563 160.593567,151.555634
	C165.953232,155.078018 177.071991,150.491623 178.045334,144.276199
	C178.272415,142.826050 177.653305,141.326523 175.943817,140.048004
	C173.737167,141.527191 171.402023,143.054794 169.107147,144.640671
	C166.431290,146.489838 163.791107,146.947296 161.703217,143.976868
	C159.597443,140.980988 161.045044,138.556061 163.607925,136.736130
	C171.351807,131.237167 179.149429,125.813599 186.943024,120.384933
	C200.616333,110.860741 214.284821,101.329453 227.989868,91.851082
	C235.265381,86.819344 237.144699,87.195862 241.778809,94.884178
	C256.287567,118.955193 259.230408,144.383667 250.500381,171.130295
	C250.139877,172.234787 249.760422,173.334274 249.447495,174.452255
	C249.364731,174.747971 249.497177,175.103928 249.587814,175.988602
	C254.742096,175.343658 259.277252,172.905106 264.024170,171.247452
	C270.710876,168.912384 272.621765,169.732361 274.285797,176.742371
	C277.095123,188.576935 279.568634,200.479828 277.401886,213.207977
M185.216339,213.022079
	C182.116455,213.633179 179.039902,214.435135 175.912064,214.817596
	C168.258469,215.753479 160.493454,216.862045 154.574738,210.008759
	C153.290741,208.522018 151.897751,209.137421 150.482727,209.694824
	C145.148422,211.796036 140.102875,211.034485 135.117355,208.406067
	C124.902916,203.020889 115.102837,197.169281 108.922890,186.662460
	C107.605476,187.487366 106.508904,188.201477 105.384293,188.868286
	C104.658035,189.298904 103.890732,189.660309 102.626099,190.322937
	C122.925461,212.880020 146.795715,224.193100 176.128220,220.490448
	C207.195236,216.568848 229.718460,200.001221 241.255493,170.543930
	C250.586761,146.718552 248.195862,123.435928 235.288239,101.287247
	C232.730667,101.908562 231.199005,102.752251 229.971649,104.595764
	C236.386688,111.070465 238.117706,119.651443 239.851868,128.059860
	C241.630478,136.683884 243.599274,145.636520 235.821320,152.847366
	C234.397125,154.167725 235.233627,155.598709 235.750885,156.993805
	C237.515991,161.754288 237.328629,166.427246 235.178375,171.038712
	C232.565460,176.642380 229.464325,181.945740 225.849655,186.970352
	C221.370163,193.197052 215.670212,196.968048 207.716446,196.446640
	C205.866806,196.325394 204.581604,196.680359 203.907623,198.713028
	C201.055435,207.315201 194.291702,211.038971 185.216339,213.022079
M124.593979,248.918304
	C149.914810,283.054688 194.702942,290.991028 229.794159,270.289093
	C264.745056,249.669952 274.671112,208.174179 265.493347,182.251923
	C263.142853,182.281647 261.077942,183.090454 259.181000,184.586868
	C259.322662,185.153366 259.337921,185.677048 259.569794,186.074310
	C267.045715,198.882233 263.885803,211.795654 259.795135,224.632797
	C258.939117,227.319199 256.850403,229.552002 254.276718,230.896790
	C251.810867,232.185211 251.128525,234.040421 251.371628,236.622849
	C251.802170,241.196472 250.263962,245.162750 247.217621,248.521774
	C242.174316,254.082703 236.735886,259.189453 230.627579,263.619781
	C225.528000,267.318512 219.999649,268.390594 214.083008,266.918182
	C211.510330,266.277954 210.082443,266.819672 208.601547,268.827087
	C205.548080,272.966248 201.257217,275.083832 196.176895,275.256561
	C191.020721,275.431885 185.820007,275.624451 180.697449,275.161133
	C172.299789,274.401642 163.974167,273.076691 159.711029,264.202179
	C158.811539,262.329712 157.152557,262.359436 155.423477,262.522217
	C149.409958,263.088226 144.438690,260.911346 139.921387,257.026550
	C131.179840,249.508896 124.794388,240.393799 120.903336,229.529419
	C118.460365,229.792221 116.379669,230.084106 114.727257,232.051834
	C116.735977,238.136841 120.713051,243.090622 124.593979,248.918304
M228.728806,127.708374
	C227.574356,123.891289 226.683121,119.968201 225.199280,116.283768
	C223.314346,111.603294 219.684235,110.571983 215.558273,113.425903
	C206.931931,119.392738 198.433807,125.544647 189.839584,131.558487
	C187.852615,132.948898 186.917374,134.646805 187.287308,137.065491
	C187.640411,139.373978 189.201859,140.688797 191.239090,141.065491
	C201.855515,143.028488 212.466171,145.079575 223.150864,146.590683
	C227.977585,147.273300 231.002823,143.770386 230.543015,138.863434
	C230.218445,135.399414 229.446808,131.977310 228.728806,127.708374
M181.268478,171.223190
	C180.032242,169.451981 178.816833,167.665756 177.554581,165.913284
	C175.899033,163.614761 174.322083,160.970123 170.877960,161.738449
	C167.565216,162.477478 166.790344,165.272690 166.275497,168.172760
	C164.535172,177.975937 162.735626,187.768646 161.021194,197.576294
	C160.180527,202.385422 162.160172,204.878220 167.042740,204.983322
	C174.437866,205.142517 181.635742,203.819839 188.499023,201.122528
	C194.759109,198.662292 196.346069,193.463913 192.669662,187.868759
	C189.109329,182.450226 185.338943,177.169678 181.268478,171.223190
M131.074356,171.638733
	C128.192764,173.619232 125.214615,175.474808 122.452385,177.609772
	C118.391670,180.748322 118.269058,184.162369 122.011116,187.640625
	C127.422371,192.670425 133.570633,196.653961 140.255920,199.748215
	C145.510376,202.180252 149.914276,200.468506 151.125412,194.952805
	C153.332520,184.901245 154.958725,174.720337 156.731384,164.576614
	C157.111771,162.399948 156.985977,160.157669 154.671188,158.886398
	C152.469147,157.677032 150.523483,158.468903 148.627502,159.760315
	C142.986557,163.602478 137.319550,167.406387 131.074356,171.638733
M221.442169,173.936859
	C222.602310,171.729706 223.835892,169.557602 224.908707,167.308792
	C228.017319,160.792725 226.363922,157.375656 219.139664,155.963440
	C209.372818,154.054199 199.554550,152.409088 189.767273,150.602386
	C187.535141,150.190353 185.863754,150.946518 184.533966,152.662491
	C182.986771,154.659012 183.198135,156.712341 184.549377,158.668121
	C190.030457,166.601334 195.357590,174.651703 201.124481,182.372818
	C204.944977,187.487946 211.543472,187.326218 215.672760,182.347229
	C217.679962,179.927017 219.277786,177.167282 221.442169,173.936859
M186.326996,247.052841
	C184.408249,242.108414 183.671982,236.705292 180.608032,231.260406
	C176.550034,238.708984 172.838364,245.374054 169.269821,252.114914
	C165.906647,258.467865 168.172485,263.075195 175.253128,264.544281
	C181.813995,265.905579 188.460907,266.057434 195.107147,265.649780
	C200.636703,265.310608 203.782318,260.810425 202.102921,255.513458
	C199.944016,248.703979 197.487045,241.988113 195.106216,235.250381
	C194.259323,232.853683 193.805893,230.247009 192.043549,228.008850
	C191.213943,229.194504 191.639816,229.975647 191.868683,230.748291
	C194.037872,238.070908 196.218811,245.390060 198.388718,252.712479
	C199.326736,255.877853 198.635284,258.428925 195.265274,259.481812
	C191.713318,260.591522 190.027893,258.266205 188.972107,255.411484
	C188.051483,252.922287 187.371567,250.344040 186.326996,247.052841
M214.853867,256.893402
	C217.772507,258.350433 220.725586,258.316193 223.408615,256.532806
	C229.546783,252.452881 235.091095,247.627563 239.500275,241.713379
	C241.851257,238.559937 242.031403,234.639999 238.228577,232.601807
	C229.499664,227.923340 220.468857,223.808121 211.560593,219.464264
	C211.379456,219.822006 211.198334,220.179733 211.017197,220.537460
	C217.577759,223.909424 224.131317,227.295059 230.701767,230.647659
	C234.058945,232.360672 238.025101,234.189896 235.582718,238.756943
	C233.231216,243.153976 229.345795,241.250885 225.982407,239.536179
	C219.753891,236.360764 213.559464,233.118408 207.325607,229.953598
	C206.243958,229.404465 205.180283,228.249466 203.484055,229.477905
	C205.983826,236.829758 208.538910,244.202682 210.978363,251.613663
	C211.625870,253.580780 212.487335,255.294754 214.853867,256.893402
M244.327148,189.989380
	C243.198013,190.488953 241.603836,190.412048 241.463486,192.600922
	C244.775055,192.479935 247.570496,193.524063 248.023071,197.168579
	C248.387878,200.106369 246.296890,201.631653 243.879044,202.723923
	C242.362717,203.408920 240.866074,204.137436 239.350937,204.825165
	C233.965515,207.269623 228.575943,209.704971 221.924896,212.715454
	C229.944427,216.721436 236.638733,220.345932 243.582047,223.405243
	C246.652786,224.758209 249.655273,223.469879 250.762009,219.970078
	C253.185013,212.307938 254.780151,204.552399 252.904007,196.447662
	C251.901733,192.117950 249.590042,189.673004 244.327148,189.989380
M161.673157,245.255920
	C163.804398,240.834839 165.935638,236.413773 168.066879,231.992691
	C163.715210,235.516861 162.041870,240.591873 159.263474,244.983505
	C157.599777,247.613220 155.751541,250.317337 152.131729,248.369980
	C148.458252,246.393738 149.227356,243.305161 150.652573,240.158234
	C152.052490,237.067169 154.439896,234.374130 154.831192,230.804459
	C148.942062,229.261688 143.330460,227.788406 137.716843,226.322845
	C135.859726,225.838013 133.832718,224.315720 132.162811,226.264740
	C130.329239,228.404816 131.532257,230.726761 132.640701,232.766876
	C135.924072,238.810013 140.096710,244.197662 145.195938,248.818573
	C152.433960,255.377625 157.104446,254.511429 161.673157,245.255920
z"/>
<path fill="currentColor" opacity="1.000000" stroke="none"
	d="
M257.771057,286.127594
	C258.615265,282.987701 260.392792,281.515106 263.274384,281.892731
	C265.218445,282.147461 266.596558,283.414856 267.041473,285.334656
	C267.694122,288.150726 266.626953,290.384460 263.797791,291.041473
	C260.292358,291.855591 258.078278,290.306396 257.771057,286.127594
z"/>
<path fill="currentColor" opacity="1.000000" stroke="none"
	d="
M204.205383,133.257568
	C199.340210,130.314133 199.005890,127.035126 203.134674,123.934982
	C206.578125,121.349434 210.219696,119.009476 213.891083,116.751923
	C216.556992,115.112640 219.344452,114.920799 221.325577,117.864243
	C223.244812,120.715714 221.804825,123.184578 219.440598,124.672089
	C214.601517,127.716721 210.650558,132.342468 204.205383,133.257568
z"/>
<path fill="currentColor" opacity="1.000000" stroke="none"
	d="
M191.310043,132.775513
	C194.284958,129.470535 197.177338,129.827225 199.427612,132.816376
	C201.313110,135.320999 199.755936,137.517105 197.548080,139.079788
	C196.244080,140.002747 194.732239,140.042328 193.377625,139.051819
	C191.353531,137.571747 190.159973,135.735733 191.310043,132.775513
z"/>
<path fill="currentColor" opacity="1.000000" stroke="none"
	d="
M191.194031,193.439728
	C187.672760,197.197708 185.209274,197.348160 182.576111,193.824463
	C179.708313,189.986832 177.086273,185.946075 174.614197,181.839111
	C172.993622,179.146790 173.040283,176.316513 176.111847,174.537430
	C179.003830,172.862411 181.426041,174.221390 182.800522,176.756561
	C185.722946,182.146774 191.558929,186.041870 191.194031,193.439728
z"/>
<path fill="currentColor" opacity="1.000000" stroke="none"
	d="
M168.098389,170.003510
	C168.976013,166.615265 170.605713,164.488617 174.117279,165.535599
	C176.192169,166.154236 177.352554,167.770065 177.181107,170.060516
	C177.012039,172.318832 175.690033,173.777100 173.558975,174.178940
	C170.601028,174.736664 168.916138,173.120346 168.098389,170.003510
z"/>
<path fill="currentColor" opacity="1.000000" stroke="none"
	d="
M148.821808,172.251587
	C149.510605,172.457474 149.866196,172.518784 150.121719,172.712234
	C154.326340,175.895477 152.359940,194.168564 147.585617,196.363998
	C144.103210,197.965332 140.446259,195.255310 140.986145,191.104172
	C141.648163,186.014038 142.772949,180.980469 143.796555,175.942551
	C144.292465,173.501877 146.030807,172.365799 148.821808,172.251587
z"/>
<path fill="currentColor" opacity="1.000000" stroke="none"
	d="
M154.703186,167.616089
	C151.276093,171.764648 148.155701,172.077042 146.358582,168.751831
	C145.436096,167.044937 145.375122,165.230850 146.548996,163.604065
	C147.726105,161.972794 149.458252,161.309845 151.353897,161.932175
	C153.822662,162.742645 155.008163,164.603653 154.703186,167.616089
z"/>
<path fill="currentColor" opacity="1.000000" stroke="none"
	d="
M215.054504,157.652802
	C216.583389,158.004578 217.722412,158.255554 218.807419,158.653687
	C221.319534,159.575424 222.649521,161.415100 222.025513,164.059982
	C221.365280,166.858368 219.176132,168.320953 216.439301,167.942642
	C211.524246,167.263229 206.644623,166.263611 201.796478,165.188904
	C199.010132,164.571228 197.414917,162.519180 197.927383,159.687210
	C198.430435,156.907288 200.611145,155.372086 203.406281,155.678589
	C207.176468,156.091995 210.897797,156.951050 215.054504,157.652802
z"/>
<path fill="currentColor" opacity="1.000000" stroke="none"
	d="
M192.762207,152.718353
	C196.134659,153.748428 197.505096,155.804062 196.384232,158.773346
	C195.442352,161.268509 193.180527,162.033432 190.698105,161.265701
	C188.313385,160.528198 187.505249,158.564713 187.813995,156.210297
	C188.154617,153.612946 189.977341,152.755096 192.762207,152.718353
z"/>
</svg>
