<svg version="1.1" id="Layer_1" xmlns="http://www.w3.org/2000/svg" xmlns:xlink="http://www.w3.org/1999/xlink" x="0px" y="0px"
	 width="100%" viewBox="0 0 368 368" enable-background="new 0 0 368 368" xml:space="preserve">
<path fill="currentColor" opacity="1.000000" stroke="none"
	d="
M162.588928,257.633362
	C167.250076,229.653763 158.674896,203.770752 152.470261,177.648514
	C147.722733,157.660843 146.634415,137.550079 148.532959,117.186531
	C148.625595,116.193047 148.763504,115.172951 148.641891,114.194885
	C146.340363,95.681946 163.504410,86.156830 176.120377,84.757317
	C185.500366,83.716782 194.906754,84.674187 204.409653,83.212189
	C216.149994,81.405960 227.992676,92.529388 229.383987,104.347374
	C233.170120,136.507156 229.969376,167.973526 220.974274,199.057617
	C217.103271,212.434555 213.776276,226.165009 214.475967,240.257004
	C215.002090,250.853485 216.706696,261.390503 217.854630,271.957489
	C218.374893,276.746552 219.058533,281.535126 219.236221,286.339905
	C219.475815,292.819031 215.807449,297.065430 209.476746,297.176666
	C195.986755,297.413818 182.486572,297.414429 168.996887,297.166962
	C162.887741,297.054932 158.698837,292.515442 159.225174,286.776093
	C160.104187,277.190918 161.421585,267.645935 162.588928,257.633362
M160.212875,149.419403
	C160.426926,152.568558 160.448532,155.744812 160.887711,158.862244
	C163.001755,173.868683 167.398087,188.380417 170.745789,203.118790
	C171.249588,205.336823 170.622116,209.996063 174.079742,209.088318
	C177.197739,208.269730 174.619308,204.389969 174.070618,202.118134
	C168.091965,177.363831 161.585587,152.739517 163.518799,126.830338
	C163.873398,122.077919 165.115555,120.533028 169.878799,120.602440
	C186.038818,120.837952 202.204468,120.676903 218.367950,120.690796
	C221.301468,120.693321 224.017395,120.973747 224.016876,116.533112
	C224.016006,109.086754 223.603333,107.853188 218.609024,107.609871
	C214.796997,107.424149 210.958511,107.879150 207.133057,107.854462
	C191.315186,107.752419 175.497742,107.583267 159.680328,107.420517
	C157.021469,107.393166 154.073471,107.555550 154.511581,111.065201
	C154.921021,114.344994 151.562149,119.209099 157.341125,120.621513
	C160.445419,121.380211 160.250473,123.282967 160.247452,125.448189
	C160.236786,133.111954 160.206619,140.775681 160.212875,149.419403
M208.672729,89.551971
	C206.679611,89.480682 204.560059,88.934998 202.716904,89.426300
	C196.996658,90.951096 191.293930,90.914795 185.467773,90.410393
	C179.775009,89.917542 174.141129,90.774651 168.834045,92.909851
	C164.770798,94.544617 160.917465,96.657158 158.824677,101.191338
	C179.967712,101.191338 200.621948,101.191338 221.890625,101.191338
	C219.400864,94.781441 215.084946,91.573524 208.672729,89.551971
M175.881271,244.754425
	C175.580780,246.728622 174.475342,248.894150 177.195023,250.495163
	C177.752121,249.852158 178.373871,249.449234 178.524323,248.913849
	C180.920853,240.386002 179.325790,231.850327 178.447113,223.324982
	C178.342041,222.305405 177.563187,221.422089 176.395569,221.587738
	C174.524353,221.853271 174.780151,223.238632 174.938309,224.632309
	C175.664856,231.034912 176.668213,237.426315 175.881271,244.754425
z"/>
</svg>
